<?xml version="1.0" standalone="no"?>
<!DOCTYPE svg PUBLIC "-//W3C//DTD SVG 20010904//EN"
 "http://www.w3.org/TR/2001/REC-SVG-20010904/DTD/svg10.dtd">
<svg version="1.0" xmlns="http://www.w3.org/2000/svg"
 width="16.000000pt" height="16.000000pt" viewBox="0 0 16.000000 16.000000"
 preserveAspectRatio="xMidYMid meet">
<metadata>
Created by potrace 1.11, written by Peter Selinger 2001-2013
</metadata>
<g transform="translate(0.000000,16.000000) scale(0.003125,-0.003125)"
fill="#000000" stroke="none">
<path d="M555 3370 c-4 -6 -11 -7 -17 -4 -7 4 -8 2 -4 -4 10 -16 23 -15 30 3
6 17 0 20 -9 5z"/>
<path d="M1475 3370 c6 -10 4 -12 -11 -6 -15 6 -17 5 -6 -5 9 -9 15 -10 23 -2
8 8 7 13 -2 18 -8 6 -10 4 -4 -5z"/>
<path d="M2276 3367 c3 -10 9 -15 12 -12 3 3 0 11 -7 18 -10 9 -11 8 -5 -6z"/>
<path d="M2776 3365 c4 -8 11 -15 16 -15 6 0 5 6 -2 15 -7 8 -14 15 -16 15 -2
0 -1 -7 2 -15z"/>
<path d="M2896 3365 c4 -8 11 -15 16 -15 6 0 5 6 -2 15 -7 8 -14 15 -16 15 -2
0 -1 -7 2 -15z"/>
<path d="M2951 3373 c3 -18 -2 -34 -9 -29 -4 2 -14 1 -22 -4 -11 -7 -9 -9 8
-7 26 2 49 32 32 42 -6 4 -10 3 -9 -2z"/>
<path d="M3437 3374 c-3 -3 -3 -13 0 -22 4 -10 2 -13 -5 -8 -6 3 -14 1 -18 -5
-4 -7 -3 -9 4 -5 6 3 13 2 16 -3 4 -5 0 -8 -6 -7 -20 3 -38 16 -38 27 0 6 4 8
9 4 5 -3 12 -1 15 4 4 5 -2 8 -11 6 -11 -1 -17 -10 -16 -21 2 -19 -8 -19 -236
-19 -174 0 -242 3 -253 12 -8 7 -19 9 -23 5 -5 -4 -5 2 -1 13 5 15 4 17 -5 8
-12 -12 -3 -37 11 -28 5 3 11 2 14 -3 2 -4 -11 -7 -29 -7 -26 0 -31 3 -23 13
8 9 7 11 -7 6 -12 -5 -16 -4 -11 4 3 6 1 14 -5 18 -7 4 -9 3 -5 -4 3 -6 -2
-16 -11 -22 -16 -11 -16 -11 2 -5 11 3 16 2 11 -2 -4 -4 -32 -8 -63 -8 -47 -1
-52 1 -37 12 16 12 16 13 1 13 -9 0 -21 -8 -26 -17 -8 -14 -10 -15 -11 -3 0
13 -1 13 -10 0 -5 -8 -17 -15 -27 -15 -10 0 -24 -4 -32 -9 -9 -6 -12 -5 -8 1
4 6 0 19 -7 29 -13 17 -14 17 -9 -8 3 -15 0 -29 -8 -33 -6 -5 -10 -4 -7 1 3 5
-4 17 -16 26 -18 13 -23 13 -23 3 0 -8 4 -12 8 -10 4 3 9 -1 12 -9 3 -8 -1
-17 -9 -20 -9 -4 -12 -2 -8 5 4 7 1 10 -7 7 -8 -3 -13 -11 -11 -17 1 -7 -2
-10 -8 -6 -6 3 -7 11 -4 17 4 7 2 8 -5 4 -6 -4 -10 -14 -9 -21 2 -8 0 -14 -4
-14 -23 -2 -27 0 -22 14 4 8 1 15 -5 15 -6 0 -10 -6 -8 -12 1 -7 -4 -12 -11
-10 -8 1 -11 -2 -8 -7 4 -5 2 -12 -4 -16 -5 -3 -10 0 -10 7 0 10 -2 10 -9 -1
-5 -8 -14 -10 -21 -6 -9 5 -11 4 -6 -3 8 -14 38 -11 59 6 12 10 17 10 23 1 4
-7 3 -9 -2 -6 -5 3 -20 -8 -34 -25 l-24 -30 -16 23 c-13 16 -19 19 -25 9 -5
-9 -4 -11 3 -6 7 4 12 1 12 -8 0 -8 -8 -20 -17 -25 -10 -6 -13 -11 -8 -11 6 0
16 5 23 12 17 17 14 -3 -3 -26 -8 -10 -12 -23 -8 -29 4 -6 1 -7 -7 -2 -10 6
-12 4 -7 -9 4 -9 3 -15 -2 -12 -5 3 -14 -1 -21 -9 -7 -8 -9 -15 -4 -15 5 0 3
-4 -5 -9 -9 -6 -10 -11 -2 -15 10 -6 15 6 12 27 0 4 3 7 8 7 5 0 8 -11 7 -24
0 -13 -4 -22 -7 -20 -3 2 -7 -16 -7 -39 -2 -75 -3 -78 -14 -71 -7 4 -8 2 -4
-5 10 -15 29 -3 22 15 -3 7 -1 16 4 19 17 10 2 -49 -16 -62 -20 -15 -11 -18
15 -4 13 8 17 5 19 -15 1 -13 -3 -24 -10 -24 -6 0 -8 -3 -5 -6 4 -4 14 -1 22
6 13 11 16 11 13 -1 -2 -8 2 -13 9 -12 7 2 10 -4 7 -12 -3 -7 -1 -22 6 -32 9
-15 10 -15 4 7 -6 23 -6 23 12 6 21 -22 26 -55 10 -76 -10 -13 -9 -13 7 -1 10
8 16 20 13 27 -8 20 7 24 27 9 18 -13 18 -14 -3 -25 -17 -9 -19 -14 -9 -26 6
-8 16 -14 22 -14 6 0 2 7 -9 16 -17 14 -17 15 -1 10 10 -3 16 -2 13 3 -10 15
33 20 45 5 6 -8 16 -11 22 -7 6 3 7 1 3 -6 -4 -6 -11 -9 -16 -6 -14 9 -23 -16
-11 -28 9 -9 10 -7 5 8 -4 11 -4 17 1 13 4 -4 16 -3 27 3 16 9 25 6 48 -16 15
-14 35 -28 45 -29 9 -1 21 -9 26 -17 5 -8 9 -9 9 -3 0 16 -25 35 -34 27 -4 -4
-4 1 0 11 4 11 9 14 13 7 4 -6 17 -9 29 -6 12 2 24 -1 27 -6 4 -5 12 -6 18 -3
7 4 8 3 4 -1 -10 -11 -39 -16 -32 -6 2 4 -2 8 -10 8 -10 0 -12 -4 -5 -13 10
-11 51 -11 102 0 10 2 21 0 24 -5 3 -6 14 -7 25 -4 11 4 19 2 19 -5 0 -7 8 -9
20 -5 12 4 20 2 20 -5 0 -6 5 -8 12 -4 7 4 8 3 4 -5 -6 -9 -11 -9 -22 0 -10 8
-14 8 -14 0 0 -6 5 -11 11 -11 5 0 7 -5 4 -11 -4 -6 2 -5 14 3 12 7 21 16 21
21 0 4 9 -1 21 -12 20 -19 55 -19 43 0 -3 5 3 6 12 2 15 -6 15 -8 -5 -24 -21
-17 -21 -18 -2 -16 11 0 17 5 14 11 -4 5 1 7 11 3 13 -5 17 -3 13 6 -3 8 1 14
9 14 7 0 10 -5 7 -10 -4 -6 0 -8 9 -4 9 3 19 3 23 -1 4 -4 12 -7 18 -7 7 0 12
-11 12 -24 0 -26 19 -39 30 -22 3 7 0 8 -9 5 -9 -3 -16 -1 -16 4 0 21 18 21
36 0 11 -12 13 -18 5 -13 -11 6 -13 4 -8 -8 3 -9 2 -19 -4 -22 -5 -4 -7 -11
-4 -16 7 -10 -24 -1 -42 13 -7 6 -14 4 -19 -3 -4 -7 -3 -9 3 -6 6 4 13 1 16
-7 3 -8 -1 -17 -9 -20 -9 -3 -12 -1 -9 4 3 6 -4 10 -16 10 -22 0 -22 0 -3 22
17 20 16 19 -12 -2 -17 -14 -29 -28 -27 -33 2 -4 -7 -2 -21 4 -14 7 -23 17
-19 23 4 7 1 7 -7 -1 -15 -14 -43 -6 -33 10 3 5 1 7 -5 4 -5 -4 -8 -15 -6 -25
4 -14 -2 -17 -36 -18 -26 -1 -36 2 -28 7 10 7 9 9 -4 9 -12 0 -16 5 -12 18 5
13 4 14 -4 3 -6 -8 -8 -21 -5 -30 3 -10 2 -12 -4 -5 -13 17 -39 23 -54 12 -11
-7 -9 -8 6 -3 11 3 16 2 11 -2 -10 -10 -206 -11 -200 -1 3 4 -5 8 -17 8 -19 0
-20 2 -8 18 13 15 12 16 -3 4 -10 -8 -14 -20 -11 -30 6 -14 5 -15 -9 -2 -12
12 -13 18 -5 30 7 8 2 6 -11 -4 -20 -17 -27 -15 -23 7 1 4 -8 2 -19 -5 -28
-18 -25 -26 10 -23 17 1 32 -1 35 -5 7 -12 -85 -3 -100 10 -8 7 -15 9 -15 4 0
-5 -5 -2 -10 6 -9 13 -10 13 -11 0 -1 -8 -1 -18 -1 -21 1 -4 -10 -10 -24 -13
-22 -6 -24 -9 -12 -23 12 -15 11 -15 -12 -3 -23 12 -24 12 -11 -3 11 -14 11
-21 -3 -42 -15 -23 -15 -24 1 -19 14 5 15 4 4 -4 -10 -7 -10 -11 -1 -17 8 -5
6 -11 -7 -22 -10 -8 -12 -11 -5 -8 11 6 12 -1 8 -30 -5 -27 -3 -34 6 -29 7 4
4 -2 -6 -14 -22 -26 -30 -28 -22 -6 3 8 2 12 -4 9 -10 -6 -14 -35 -5 -35 3 0
14 6 25 13 17 10 22 9 30 -3 5 -8 10 -12 10 -8 0 4 11 3 24 -2 17 -6 26 -5 30
3 2 7 5 4 5 -6 1 -10 6 -15 11 -12 6 4 8 9 6 13 -2 4 24 7 59 7 35 1 62 -2 59
-7 -3 -4 -12 -4 -22 -1 -9 3 -15 4 -12 2 41 -35 54 -43 41 -26 -12 15 -11 17
3 17 10 0 15 4 12 8 -3 5 1 9 9 9 8 0 11 -5 8 -10 -4 -7 1 -8 13 -3 26 11 114
14 108 5 -2 -4 -13 -6 -24 -4 -21 4 -36 -10 -21 -19 5 -4 13 -1 16 4 5 8 14 5
28 -7 19 -16 20 -16 8 0 -12 15 -11 17 3 17 10 0 15 4 12 8 -3 5 1 9 9 9 8 0
11 -5 8 -10 -4 -7 1 -7 13 -2 32 13 265 12 292 -2 20 -11 23 -11 18 2 -6 17
10 30 19 15 5 -8 12 -7 22 2 21 17 23 17 38 -12 l13 -25 7 28 c8 29 19 35 31
15 4 -7 3 -8 -4 -4 -7 4 -12 2 -12 -4 0 -7 6 -10 13 -7 6 2 11 11 11 20 -1 8
4 14 10 13 19 -3 37 -17 32 -25 -3 -4 1 -8 8 -8 7 0 13 6 13 13 0 7 -4 11 -8
9 -4 -3 -10 2 -13 11 -3 8 -2 12 4 9 6 -3 10 0 10 7 1 7 8 2 16 -12 8 -14 13
-18 11 -10 -6 21 11 50 29 50 9 0 12 5 8 12 -5 7 -3 8 6 3 11 -7 9 -12 -8 -23
-23 -15 -29 -32 -11 -32 5 0 7 5 4 10 -6 10 6 14 35 11 9 -1 11 1 5 6 -5 4
-11 16 -12 26 0 10 1 16 4 13 3 -2 16 -1 29 4 14 6 26 6 29 -1 11 -16 25 1 21
24 -3 12 -5 26 -5 30 -1 5 -7 5 -13 1 -7 -3 -1 5 15 20 29 29 37 47 10 25 -15
-13 -15 -12 -5 6 5 11 20 21 33 22 12 1 27 7 33 13 8 8 4 9 -16 1 -16 -6 -28
-7 -29 -3 0 4 -2 17 -5 29 -2 12 1 25 6 28 6 4 7 12 3 18 -3 7 3 3 15 -7 12
-11 22 -16 22 -11 0 4 -12 19 -27 32 l-28 24 30 -6 c25 -4 26 -4 9 4 -22 10
-51 73 -45 100 1 7 -2 10 -9 6 -6 -3 -10 -3 -9 2 4 22 -2 35 -15 30 -10 -4
-13 3 -11 31 3 37 3 37 -9 10 -11 -26 -12 -26 -24 -8 -8 14 -9 21 0 26 7 4 8
3 4 -4 -4 -7 -3 -12 3 -12 5 0 9 9 8 20 -1 13 -5 16 -11 10 -13 -13 -46 -13
-46 1 0 5 -4 7 -10 4 -6 -4 -7 1 -3 12 6 16 5 16 -10 4 -20 -16 -21 -9 -6 22
10 20 9 20 -9 -1 -17 -22 -20 -22 -34 -8 -9 8 -19 12 -24 8 -5 -4 -3 0 3 8 8
11 9 20 1 30 -8 12 -9 11 -4 -4 5 -13 2 -17 -9 -13 -8 4 -17 1 -21 -5 -5 -7
-2 -8 6 -3 9 5 11 4 6 -4 -9 -14 -28 -4 -24 12 2 7 -1 13 -6 14 -5 1 -12 7
-17 14 -11 19 -48 18 -62 -1 -7 -9 -19 -16 -27 -14 -8 2 -28 6 -45 10 -16 4
-39 6 -50 6 -15 -1 -17 1 -5 8 8 5 17 7 20 5 4 -2 21 -7 38 -10 35 -6 41 5 16
25 -12 11 -15 11 -12 -1 4 -17 -33 -13 -44 4 -6 9 -8 9 -8 0 0 -7 -9 -13 -21
-13 -12 0 -17 -4 -13 -11 5 -8 1 -8 -13 0 -11 6 -24 7 -28 3 -5 -4 -4 -1 0 7
6 11 4 13 -8 8 -22 -8 -22 2 1 20 15 13 15 13 -6 3 -12 -6 -28 -8 -35 -4 -7 5
-7 2 2 -9 12 -15 12 -17 -3 -11 -9 3 -16 13 -16 21 0 8 -5 11 -10 8 -6 -4 -8
-10 -6 -14 3 -4 -1 -8 -9 -8 -8 0 -11 5 -8 10 4 6 0 8 -10 4 -9 -3 -19 -1 -23
5 -5 7 -2 8 6 3 9 -5 11 -4 6 4 -4 6 -11 9 -16 6 -5 -3 -10 0 -13 7 -2 7 -2 3
0 -10 3 -22 3 -22 -22 -6 -14 9 -25 13 -25 9 0 -4 -6 -2 -13 4 -8 6 -18 7 -22
3 -5 -4 -5 -1 -1 6 6 11 11 11 24 0 15 -11 15 -11 5 3 -7 9 -10 19 -6 23 4 4
-5 2 -20 -3 -18 -7 -26 -7 -22 -1 3 6 -2 10 -12 10 -12 1 -8 5 12 15 17 8 21
13 9 10 -17 -4 -20 -1 -19 17 1 16 7 22 20 20 11 -2 14 1 10 8 -6 9 -2 9 14 1
16 -9 21 -9 21 1 0 9 14 13 40 13 35 0 39 -2 34 -20 -4 -16 -3 -17 5 -5 10 14
15 8 12 -15 -1 -5 5 -2 13 8 10 13 15 14 18 6 3 -9 6 -8 11 3 4 13 1 16 -19
12 -13 -2 -24 0 -24 5 0 5 8 8 18 6 9 -1 23 3 31 9 11 8 13 8 7 -2 -4 -7 -1
-15 8 -18 9 -3 13 -11 9 -18 -5 -8 -3 -8 8 0 8 6 22 10 32 9 9 -2 15 1 11 6
-3 5 -10 7 -15 4 -5 -4 -9 -1 -9 4 0 14 3 14 34 0 14 -7 22 -17 19 -23 -5 -8
-3 -8 8 0 8 6 22 10 32 9 9 -2 15 1 11 6 -3 5 -10 7 -15 4 -5 -4 -9 -2 -9 3 0
6 11 9 25 8 20 -1 24 -5 19 -21 -4 -16 -3 -17 5 -5 7 9 11 10 11 3 0 -6 9 -11
20 -10 21 1 26 12 10 22 -5 3 -10 1 -10 -5 0 -6 -4 -8 -10 -5 -21 13 -8 21 33
19 65 -2 67 -3 61 -21 -4 -11 -3 -14 3 -7 4 6 16 10 25 9 10 -2 15 2 12 10 -3
7 -1 16 5 20 7 3 8 0 5 -9 -4 -10 -1 -16 9 -16 8 0 17 -5 19 -12 3 -7 7 -5 11
6 4 10 3 15 -3 11 -6 -3 -10 -2 -10 3 0 6 28 8 66 6 36 -2 63 0 60 5 -3 4 10
7 29 6 28 -1 32 1 23 12 -9 11 -8 13 1 11 14 -3 21 16 24 72 1 19 6 40 10 47
4 6 3 14 -3 18 -12 7 10 34 25 30 5 -1 7 0 2 2 -4 3 -4 10 -1 16 5 8 2 8 -7 0
-20 -19 -34 -16 -18 4 10 11 10 14 2 9 -13 -7 -15 -1 -16 42 0 24 -1 25 -10
16z m-272 -484 c9 8 14 6 19 -5 3 -9 10 -13 16 -10 6 4 7 -1 3 -10 -4 -12 -8
-13 -13 -4 -5 6 -15 9 -24 6 -9 -4 -16 -2 -16 4 0 6 -4 7 -10 4 -11 -7 -14 8
-3 19 4 4 9 2 11 -4 3 -8 8 -8 17 0z m-515 -191 c0 -14 -17 -10 -23 5 -4 10
-1 13 9 9 7 -3 14 -9 14 -14z m-200 -211 c0 -4 -4 -8 -9 -8 -6 0 -12 4 -15 8
-3 5 1 9 9 9 8 0 15 -4 15 -9z m546 -7 c1 -6 0 -7 -3 -1 -2 5 -9 8 -13 5 -5
-3 -11 -1 -14 4 -4 5 2 8 11 7 9 -2 18 -8 19 -15z m461 -122 c2 -16 -1 -19 -9
-11 -6 6 -18 8 -26 4 -15 -5 -15 -4 -2 11 21 23 35 21 37 -4z"/>
<path d="M3900 3355 c6 -15 10 -27 10 -29 0 -1 -13 -2 -29 -2 -17 0 -28 3 -25
8 3 4 -2 8 -11 8 -9 0 -13 -5 -9 -11 5 -8 2 -9 -12 -1 -15 9 -24 5 -46 -21
-16 -17 -29 -39 -29 -49 -1 -10 -3 -22 -4 -28 -1 -5 -3 -17 -4 -26 0 -8 -5
-12 -11 -9 -6 3 -7 -1 -4 -9 3 -9 1 -16 -6 -16 -6 0 -8 -5 -4 -11 4 -8 11 -4
19 11 8 15 15 19 19 11 4 -6 3 -11 -3 -11 -10 0 -10 -18 1 -36 4 -6 1 -11 -7
-11 -8 0 -11 5 -8 10 3 6 1 7 -6 3 -6 -4 -9 -12 -6 -17 4 -5 1 -9 -4 -9 -6 0
-11 -5 -11 -12 0 -9 3 -9 12 0 18 18 32 14 17 -5 -8 -10 -9 -14 -2 -10 6 4 14
3 17 -2 4 -5 2 -12 -4 -16 -6 -4 -8 -10 -5 -15 3 -5 0 -12 -6 -16 -8 -4 -9 -3
-5 4 11 18 0 14 -15 -5 -8 -10 -9 -14 -2 -10 6 4 14 3 18 -3 3 -5 1 -10 -5
-10 -6 0 -8 -5 -4 -11 4 -8 9 -7 15 2 4 7 5 17 3 21 -3 4 -2 8 3 8 4 -1 18
-16 30 -35 20 -31 20 -36 7 -50 -9 -8 -22 -15 -29 -15 -8 0 -16 -9 -20 -19 -4
-14 -11 -18 -23 -14 -14 6 -15 5 -2 -9 14 -15 16 -14 28 8 15 28 19 30 19 9 0
-8 -4 -15 -8 -15 -9 0 -7 -20 4 -37 4 -6 3 -14 -3 -18 -10 -6 -14 1 -10 20 1
5 -2 7 -6 3 -4 -4 -14 -2 -23 4 -12 10 -12 8 2 -8 20 -24 22 -38 5 -28 -7 4
-10 4 -6 -1 4 -4 2 -15 -4 -24 -10 -12 -8 -12 8 2 26 22 29 21 31 -3 1 -11 -3
-20 -8 -20 -6 0 -7 5 -3 12 5 7 3 8 -6 3 -10 -6 -10 -11 3 -20 18 -13 11 -29
-7 -18 -17 11 -37 12 -30 2 3 -5 9 -7 14 -4 5 3 12 0 15 -6 4 -5 12 -8 19 -6
6 3 11 -5 11 -18 0 -13 -2 -23 -5 -23 -25 2 -32 -4 -14 -12 15 -6 21 -16 19
-34 -2 -16 2 -26 10 -26 8 0 11 -7 8 -20 -3 -11 -10 -17 -16 -13 -6 4 -7 1 -2
-7 6 -10 11 -10 20 4 11 14 13 15 18 1 4 -8 1 -14 -5 -12 -7 1 -12 -2 -13 -8
-1 -17 -16 -36 -25 -30 -11 7 -7 -36 5 -54 6 -10 4 -12 -5 -6 -9 6 -12 4 -8
-6 4 -11 -1 -15 -18 -15 -16 0 -23 5 -20 13 8 21 -2 15 -15 -8 -8 -16 -8 -20
0 -14 13 7 11 -39 -2 -51 -10 -10 -9 -26 2 -20 10 6 9 -49 -1 -60 -4 -3 -3
-14 2 -24 5 -10 7 -20 3 -23 -3 -3 -2 -14 2 -24 10 -22 12 -29 14 -45 0 -7 7
-4 14 7 11 14 16 15 22 5 5 -9 4 -11 -3 -6 -17 10 -15 -13 2 -30 18 -18 50
-19 40 -1 -5 8 -2 8 9 -2 18 -15 23 -26 7 -16 -6 4 -7 -1 -3 -11 5 -15 7 -15
15 0 5 9 6 22 3 29 -4 6 0 4 8 -6 11 -14 16 -15 20 -5 4 9 6 7 6 -4 1 -10 11
-22 24 -28 20 -10 20 -10 5 3 -20 16 -23 33 -8 42 6 3 14 -5 20 -19 5 -14 13
-26 17 -27 5 0 16 -2 26 -4 9 -2 15 1 11 6 -3 5 -9 7 -13 5 -13 -8 -34 12 -28
27 7 17 41 16 43 -1 1 -7 2 -16 3 -22 2 -16 18 -12 18 5 0 8 -4 12 -9 9 -4 -3
-5 2 -1 11 5 13 7 14 14 3 9 -14 9 -14 13 20 2 12 -2 22 -7 22 -17 0 -1 10 22
15 13 2 24 -2 28 -10 7 -20 28 -19 44 3 11 14 11 15 -1 5 -18 -16 -30 -17 -30
-1 0 6 3 8 7 5 3 -4 14 0 24 8 15 15 19 14 39 -12 13 -15 21 -21 18 -13 -5 13
9 15 86 14 119 -2 118 -2 111 -14 -3 -6 1 -7 9 -4 9 3 14 9 12 13 -3 4 6 7 19
7 13 0 22 -3 19 -7 -2 -4 5 -9 16 -12 11 -3 23 0 27 5 3 6 1 8 -5 4 -6 -3 -13
-2 -16 3 -3 4 2 8 12 8 9 -1 30 5 45 13 21 10 24 16 15 23 -9 6 -8 7 5 3 11
-3 17 0 17 10 0 8 -4 12 -10 9 -14 -9 -12 1 3 13 10 8 13 6 14 -11 1 -12 12
-30 24 -40 18 -15 20 -19 8 -34 -12 -14 -12 -16 0 -8 11 6 13 4 8 -8 -9 -24 0
-21 14 4 9 17 8 20 -3 14 -7 -5 -9 -4 -5 0 10 11 117 13 111 3 -3 -4 4 -8 15
-8 15 0 19 -5 14 -17 -7 -19 -5 -18 17 11 13 18 13 19 0 11 -8 -4 -12 -4 -7 0
9 10 88 14 82 4 -3 -4 4 -9 16 -12 17 -5 18 -3 7 10 -12 14 -11 15 9 5 31 -17
40 -15 17 3 -12 10 -14 14 -4 13 8 -2 14 2 15 9 0 7 8 21 17 33 10 11 13 20 7
20 -5 0 -7 5 -3 11 4 8 13 4 25 -12 18 -24 18 -24 12 -1 -3 12 -9 23 -14 23
-5 1 -13 3 -19 4 -5 1 -13 3 -16 4 -4 0 -1 7 5 15 9 11 9 15 -1 19 -11 4 -11
6 0 6 9 1 10 6 2 20 -5 11 -6 22 -1 25 5 3 7 25 6 48 -3 48 3 71 16 62 5 -3 9
0 9 5 0 15 -13 14 -29 -1 -11 -11 -13 -10 -8 4 3 9 -1 22 -9 28 -8 7 -14 9
-14 5 0 -4 -6 -2 -14 4 -7 6 -20 9 -28 6 -16 -6 -32 20 -23 35 7 11 -22 7 -32
-5 -4 -4 -2 -5 5 -1 8 5 12 0 12 -15 0 -18 -2 -19 -15 -9 -8 7 -15 9 -15 6 0
-4 -8 -2 -19 3 -13 7 -24 6 -37 -4 -11 -8 -23 -14 -29 -15 -5 0 -3 5 5 10 9 6
11 10 3 10 -7 0 -10 8 -7 18 3 9 -2 4 -11 -11 -9 -15 -21 -25 -26 -21 -6 4 -3
14 8 27 12 15 13 18 2 10 -12 -10 -18 -10 -29 0 -12 10 -12 9 -3 -3 8 -10 9
-21 3 -30 -8 -12 -10 -11 -11 5 0 11 -3 14 -6 8 -7 -18 -33 -16 -33 2 0 8 -4
15 -8 15 -17 0 -8 -30 10 -36 17 -5 17 -7 -7 -26 -14 -11 -23 -23 -21 -27 3
-4 -1 -8 -9 -8 -8 0 -12 4 -9 8 2 4 -1 9 -7 11 -6 2 -12 15 -12 30 -1 14 -5
26 -9 25 -5 -2 -8 4 -8 18 0 3 10 1 21 -6 15 -8 19 -8 15 0 -4 6 0 14 9 17 13
5 14 9 4 15 -19 11 -20 39 -2 32 13 -5 13 -3 2 15 -7 11 -17 18 -23 15 -5 -4
-6 -1 0 8 12 19 12 32 0 48 -8 11 -8 13 0 8 7 -4 11 6 11 28 0 20 -4 32 -10
28 -6 -3 -7 -1 -3 6 6 9 11 9 22 0 12 -10 13 -9 8 6 -6 14 -4 16 7 10 11 -7
12 -6 3 6 -13 17 -12 45 2 42 5 -1 10 7 10 18 0 10 -4 19 -8 19 -4 0 -8 -6 -8
-14 0 -15 -16 -16 -38 -2 -10 6 -10 11 -1 22 6 8 17 14 23 14 6 0 2 -7 -8 -15
-11 -8 -15 -15 -9 -15 6 0 16 7 23 15 10 12 9 16 -4 21 -14 5 -14 9 -4 23 12
14 11 14 -4 2 -10 -7 -16 -17 -13 -21 8 -12 -20 -19 -36 -9 -8 5 -21 6 -31 3
-9 -2 -19 0 -23 5 -3 7 0 8 9 5 9 -3 16 -2 16 3 0 5 -15 9 -34 9 -19 0 -34 -5
-33 -10 2 -13 -34 -14 -50 -2 -9 5 -13 4 -13 -5 0 -11 -2 -11 -10 1 -9 13 -10
13 -10 0 0 -13 -1 -13 -10 0 -6 9 -13 11 -17 5 -5 -5 -15 -12 -23 -13 -8 -2
-12 -1 -8 3 4 4 1 14 -7 21 -19 19 -30 18 -14 -2 10 -13 10 -17 -2 -25 -15 -9
-28 -12 -43 -10 -5 1 -6 -5 -3 -13 3 -8 -2 -25 -12 -37 -14 -17 -18 -19 -18
-6 0 9 4 14 8 11 14 -8 2 47 -13 63 -12 11 -17 12 -23 2 -6 -8 -4 -10 5 -4 9
6 11 4 5 -5 -6 -9 -4 -11 5 -5 9 6 11 4 5 -5 -5 -9 -4 -11 3 -6 8 5 10 2 6 -8
-5 -13 -10 -11 -26 9 -11 14 -24 22 -30 19 -7 -4 -8 -2 -4 4 4 7 2 12 -5 12
-7 0 -9 3 -6 6 4 4 12 2 19 -4 9 -7 17 -6 26 4 7 8 10 14 6 14 -3 0 0 7 7 16
7 9 14 39 14 68 1 28 5 62 9 76 5 17 4 21 -2 11 -6 -8 -12 -9 -16 -3 -3 6 6
15 21 20 16 6 21 11 13 11 -8 1 -21 10 -28 22 -8 12 -9 18 -4 15 6 -3 12 1 16
9 3 8 0 15 -7 15 -7 0 -4 5 5 11 15 8 16 13 5 29 -6 11 -16 20 -21 20 -5 0 -1
-9 9 -20 10 -11 15 -20 11 -20 -4 0 -18 13 -32 30 -15 17 -31 27 -39 23 -8 -3
-15 0 -15 5 0 6 9 9 20 7 12 -2 18 0 15 6 -4 5 -11 6 -17 3 -7 -5 -9 0 -6 14
4 12 2 20 -3 16 -5 -3 -9 -12 -9 -20 0 -8 -5 -12 -10 -9 -6 4 -9 1 -8 -6 4
-15 -80 -21 -89 -6 -4 6 -1 7 7 2 9 -5 11 -4 6 4 -4 6 -12 9 -17 6 -5 -4 -9 1
-9 9 0 8 -4 18 -10 21 -7 4 -7 -3 0 -20z m-30 -393 c0 -4 -10 -9 -22 -9 -18
-2 -20 0 -8 7 18 12 30 13 30 2z m145 -2 c3 -6 -1 -7 -9 -4 -18 7 -21 14 -7
14 6 0 13 -4 16 -10z m481 -84 c0 -14 -4 -22 -8 -20 -5 3 -6 10 -3 15 4 5 0 9
-7 9 -9 0 -9 3 2 10 8 5 15 10 16 10 0 0 0 -11 0 -24z m-366 -16 c0 -5 -8 -10
-17 -10 -15 0 -16 2 -3 10 19 12 20 12 20 0z m0 -40 c0 -5 -7 -7 -15 -4 -8 4
-15 8 -15 10 0 2 7 4 15 4 8 0 15 -4 15 -10z m-11 -46 c4 3 7 -6 7 -19 0 -15
-4 -21 -14 -18 -10 4 -11 8 -2 13 9 5 9 9 1 14 -6 4 -11 13 -10 19 0 9 2 8 6
-1 2 -6 8 -10 12 -8z m11 -74 c0 -5 -8 -10 -17 -10 -15 0 -16 2 -3 10 19 12
20 12 20 0z m5 -55 c0 -11 5 -20 10 -20 6 0 21 -8 33 -17 l24 -16 -24 -8 c-12
-4 -26 -7 -30 -6 -5 1 -8 -5 -8 -14 0 -10 -6 -14 -14 -11 -14 6 -16 -9 -4 -29
4 -6 1 -11 -6 -11 -8 0 -13 7 -11 16 1 9 -2 19 -8 22 -5 4 0 10 12 14 11 3 21
11 21 16 0 6 -4 8 -9 5 -5 -3 -14 0 -20 8 -9 10 -7 17 6 27 15 12 16 12 9 -6
-4 -11 -4 -16 0 -12 4 4 16 -1 27 -10 17 -15 17 -13 -2 14 -13 17 -21 36 -17
41 3 6 -2 13 -11 16 -14 4 -14 4 2 3 13 -2 20 -10 20 -22z m-38 -23 c-15 -17
-15 -19 0 -35 16 -16 16 -17 -4 -17 -16 0 -21 6 -20 23 2 23 27 60 36 52 2 -3
-3 -13 -12 -23z m393 14 c0 -3 -4 -8 -10 -11 -5 -3 -10 -1 -10 4 0 6 5 11 10
11 6 0 10 -2 10 -4z m-673 -48 c-3 -8 -6 -5 -6 6 -1 11 2 17 5 13 3 -3 4 -12
1 -19z m53 12 c0 -5 -5 -10 -11 -10 -5 0 -7 5 -4 10 3 6 8 10 11 10 2 0 4 -4
4 -10z m37 -12 c-3 -8 -6 -5 -6 6 -1 11 2 17 5 13 3 -3 4 -12 1 -19z m53 7 c0
-2 -6 -5 -13 -8 -8 -3 -14 1 -14 8 0 7 6 11 14 8 7 -3 13 -6 13 -8z m45 6 c-9
-8 -36 -10 -30 -2 2 4 11 8 20 8 8 0 13 -3 10 -6z m54 -14 c0 -9 -2 -8 -6 1
-2 6 -10 9 -15 6 -7 -4 -8 -2 -4 5 9 13 26 5 25 -12z m171 13 c0 -5 -5 -10
-11 -10 -5 0 -7 5 -4 10 3 6 8 10 11 10 2 0 4 -4 4 -10z m51 -13 c-10 -9 -11
-8 -5 6 3 10 9 15 12 12 3 -3 0 -11 -7 -18z m69 13 c0 -5 -5 -10 -11 -10 -5 0
-7 5 -4 10 3 6 8 10 11 10 2 0 4 -4 4 -10z m37 -12 c-3 -8 -6 -5 -6 6 -1 11 2
17 5 13 3 -3 4 -12 1 -19z m53 -3 c14 -18 13 -19 -1 -8 -9 7 -19 10 -23 6 -4
-4 -4 1 0 10 3 10 7 17 8 15 1 -2 8 -12 16 -23z m254 7 c3 -5 -1 -9 -9 -9 -8
0 -12 4 -9 9 3 4 7 8 9 8 2 0 6 -4 9 -8z m-184 -92 c0 -5 -2 -10 -4 -10 -3 0
-8 5 -11 10 -3 6 -1 10 4 10 6 0 11 -4 11 -10z m-390 -15 c-9 -10 -9 -15 -1
-15 6 0 11 -5 11 -10 0 -6 -7 -6 -19 2 -14 9 -16 14 -7 24 16 19 31 17 16 -1z
m385 -13 c-3 -3 -11 0 -18 7 -9 10 -8 11 6 5 10 -3 15 -9 12 -12z m-15 -22 c0
-5 -5 -10 -11 -10 -5 0 -7 5 -4 10 3 6 8 10 11 10 2 0 4 -4 4 -10z m-736 -8
c3 -5 -1 -9 -9 -9 -8 0 -15 4 -15 9 0 4 4 8 9 8 6 0 12 -4 15 -8z m376 -22 c0
-5 -7 -7 -15 -4 -8 4 -15 8 -15 10 0 2 7 4 15 4 8 0 15 -4 15 -10z m0 -40 c0
-5 -8 -10 -17 -10 -15 0 -16 2 -3 10 19 12 20 12 20 0z m380 0 c0 -5 -2 -10
-4 -10 -3 0 -8 5 -11 10 -3 6 -1 10 4 10 6 0 11 -4 11 -10z m-5 -28 c-3 -3
-11 0 -18 7 -9 10 -8 11 6 5 10 -3 15 -9 12 -12z m-375 -12 c0 -5 -7 -7 -15
-4 -8 4 -15 8 -15 10 0 2 7 4 15 4 8 0 15 -4 15 -10z m360 -10 c0 -5 -5 -10
-11 -10 -5 0 -7 5 -4 10 3 6 8 10 11 10 2 0 4 -4 4 -10z m-359 -27 c2 1 1 -2
-3 -8 -5 -5 4 -19 19 -30 l26 -22 -34 2 c-33 2 -34 3 -34 43 0 33 2 39 11 27
6 -8 13 -14 15 -12z"/>
<path d="M4156 2605 c4 -8 11 -15 16 -15 6 0 5 6 -2 15 -7 8 -14 15 -16 15 -2
0 -1 -7 2 -15z"/>
<path d="M3955 3370 c6 -10 4 -12 -11 -6 -15 6 -17 5 -6 -5 9 -9 15 -10 23 -2
8 8 7 13 -2 18 -8 6 -10 4 -4 -5z"/>
<path d="M293 3356 c0 -8 4 -13 9 -10 4 3 8 1 8 -4 0 -14 29 -10 34 4 3 8 0
16 -6 20 -7 4 -8 3 -4 -4 9 -15 -16 -16 -30 -2 -7 7 -11 6 -11 -4z"/>
<path d="M362 3350 c-8 -13 -7 -17 4 -17 8 0 12 3 9 5 -3 3 3 10 11 17 14 10
14 12 2 12 -9 0 -20 -8 -26 -17z"/>
<path d="M412 3365 c4 -4 0 -13 -8 -20 -15 -11 -15 -12 -1 -12 20 0 30 24 14
33 -7 4 -9 4 -5 -1z"/>
<path d="M442 3350 c-8 -13 -7 -17 4 -17 8 0 12 3 9 6 -3 3 5 11 17 17 22 13
23 13 2 11 -12 0 -26 -8 -32 -17z"/>
<path d="M506 3361 c-4 -5 -4 -15 -1 -23 4 -9 -2 -14 -17 -15 -13 0 -17 1 -10
4 6 3 12 9 12 15 0 6 -8 5 -17 -4 -13 -10 -40 -14 -96 -13 -53 0 -82 -4 -89
-12 -6 -8 -15 -10 -22 -4 -6 5 -19 5 -31 0 -19 -9 -19 -9 2 -5 27 5 37 -18 20
-45 -10 -16 -9 -21 3 -29 11 -7 11 -10 2 -10 -9 0 -10 -5 -2 -19 7 -13 7 -22
0 -26 -5 -3 -10 -11 -10 -16 0 -6 6 -7 13 -3 9 6 9 5 0 -8 -7 -8 -10 -18 -6
-22 16 -16 10 -33 -10 -28 -19 5 -19 4 -6 -10 7 -9 19 -13 24 -10 6 2 5 -1 -2
-8 -8 -9 -9 -19 -3 -31 7 -11 7 -20 0 -24 -5 -3 -10 -11 -10 -16 0 -6 5 -7 12
-3 7 4 8 3 4 -5 -4 -6 -11 -9 -15 -7 -4 3 -13 0 -21 -6 -13 -8 -12 -9 2 -5 9
3 22 -1 30 -10 11 -14 10 -15 -12 -9 -20 6 -22 5 -8 -4 10 -6 15 -17 11 -27
-5 -12 -3 -14 8 -8 11 7 12 6 4 -6 -12 -17 -13 -39 -1 -58 6 -10 5 -12 -2 -7
-8 4 -12 -1 -13 -13 -3 -40 -4 -44 -15 -48 -14 -5 -13 29 1 40 6 5 4 7 -4 5
-22 -6 -21 -48 2 -60 13 -7 17 -7 13 0 -3 6 -2 13 4 17 6 4 8 11 5 16 -4 5 -1
9 4 9 14 0 14 -17 1 -25 -8 -5 -7 -12 2 -23 10 -12 10 -14 1 -8 -7 4 -13 3
-13 -2 0 -6 -7 -9 -16 -8 -9 0 -18 -7 -19 -17 -2 -9 1 -15 6 -11 5 3 7 10 4
15 -8 11 31 6 42 -6 5 -4 2 -5 -4 -1 -9 5 -13 -1 -13 -19 0 -17 4 -24 12 -19
7 5 8 3 2 -7 -5 -8 -7 -22 -5 -33 2 -13 -1 -16 -11 -10 -9 6 -9 3 2 -10 21
-27 21 -48 -1 -53 -14 -4 -18 -12 -15 -29 3 -15 -1 -27 -12 -33 -15 -9 -14
-10 5 -8 15 1 20 7 18 19 -2 10 0 16 6 13 5 -4 7 -11 4 -16 -4 -5 -1 -9 4 -9
6 0 2 -9 -9 -20 -22 -22 -26 -40 -9 -40 5 0 8 4 5 8 -2 4 0 14 6 22 8 12 9 12
4 -2 -3 -10 -1 -20 5 -23 5 -4 6 -12 2 -18 -10 -16 -9 -49 2 -66 6 -10 4 -12
-4 -6 -15 9 -13 -42 3 -63 7 -10 4 -12 -15 -9 -13 2 -18 2 -11 0 15 -5 16 -19
2 -28 -5 -3 -10 -14 -9 -23 0 -16 1 -16 7 0 5 13 11 15 22 8 13 -9 13 -11 0
-20 -8 -5 -10 -10 -4 -10 6 0 17 6 23 14 10 11 8 16 -9 21 -11 3 -18 11 -15
16 9 14 40 -21 42 -47 1 -17 -2 -22 -15 -17 -14 4 -14 3 -2 -5 17 -13 33 -5
26 13 -5 15 31 28 40 14 3 -5 10 -9 15 -9 6 0 7 5 4 10 -4 6 4 5 19 -1 14 -7
23 -17 19 -23 -4 -7 -1 -7 7 1 7 6 18 9 25 7 7 -3 16 -1 19 4 3 5 -6 8 -19 6
-14 -1 -27 1 -29 5 -3 4 9 7 27 6 23 -2 32 -7 31 -19 -2 -13 1 -14 12 -5 8 6
11 16 8 21 -4 5 8 3 24 -6 23 -12 33 -13 38 -4 4 6 3 8 -4 4 -6 -3 -13 -2 -16
2 -6 10 34 10 49 0 6 -4 12 3 12 14 1 12 6 25 11 30 6 6 8 -1 7 -16 -2 -15 0
-24 4 -21 4 2 7 14 5 27 -1 13 -3 27 -3 31 -1 5 -5 6 -9 3 -5 -3 -9 1 -9 9 0
8 4 12 9 9 8 -5 12 10 9 35 -2 8 2 10 11 5 9 -5 8 -2 -2 11 -14 17 -13 18 3
12 11 -4 16 -3 12 4 -4 5 -16 7 -28 4 -12 -2 -16 -2 -10 1 10 4 10 11 2 26 -6
12 -7 18 -1 14 11 -6 21 22 15 42 -3 6 -9 10 -14 6 -5 -3 -9 0 -9 5 0 15 13
14 30 -1 8 -7 11 -9 7 -4 -4 5 -1 16 6 25 11 14 10 14 -5 2 -13 -9 -18 -10
-18 -2 0 7 -5 9 -12 5 -7 -4 -8 -3 -4 5 4 6 11 9 16 6 5 -3 12 0 16 6 4 7 3 9
-4 5 -7 -4 -10 4 -10 21 1 45 -1 55 -12 48 -5 -3 -10 -1 -10 4 0 14 12 14 28
1 6 -6 10 -7 7 -4 -3 4 1 14 8 23 11 14 10 14 -5 2 -13 -9 -18 -10 -18 -2 0 7
-5 9 -12 5 -7 -4 -8 -3 -4 5 4 6 11 9 16 6 5 -3 12 0 16 6 5 8 3 9 -6 4 -10
-6 -12 -4 -7 8 3 9 -1 23 -9 32 -9 8 -11 15 -5 15 6 0 11 5 11 11 0 5 -4 7
-10 4 -5 -3 -10 -1 -10 4 0 14 12 14 28 1 6 -6 10 -7 7 -4 -3 4 1 14 8 23 10
14 10 14 -4 3 -14 -11 -16 -9 -16 13 0 15 4 22 11 18 12 -8 -14 28 -29 39 -6
5 -5 8 3 8 6 0 12 5 12 11 0 5 -4 7 -10 4 -5 -3 -10 -1 -10 4 0 14 12 14 28 1
6 -6 10 -7 7 -4 -3 4 1 14 8 23 10 14 10 14 -4 3 -14 -11 -16 -9 -16 13 0 15
4 22 11 18 12 -8 -14 28 -29 39 -6 5 -6 8 1 8 17 0 23 60 7 75 -10 10 -10 14
0 18 9 4 9 8 -1 15 -11 7 -11 10 3 16 9 3 13 10 10 16 -3 5 0 10 7 10 8 0 9 3
3 8 -13 9 -18 32 -7 32 5 0 9 7 9 16 0 15 -1 15 -12 0 -7 -9 -11 -30 -10 -46
1 -17 -1 -30 -5 -30 -11 0 -7 74 5 83 6 4 5 10 -3 16 -11 6 -10 10 5 16 10 5
21 9 25 9 3 1 10 5 15 9 4 5 2 7 -6 5 -18 -4 -21 48 -4 70 15 21 16 32 3 32
-6 0 -9 -3 -9 -7 3 -20 -3 -23 -21 -13 -11 6 -20 17 -20 25 0 9 -10 13 -34 11
-27 -3 -33 0 -28 12 4 11 2 13 -8 7 -10 -6 -12 -4 -7 8 7 18 2 23 -7 8z m111
-123 c-1 -23 -8 -43 -14 -45 -13 -5 -12 44 0 65 5 6 4 12 -2 12 -6 0 -11 4
-11 10 0 5 6 7 14 4 10 -4 14 -19 13 -46z m-12 -237 c3 -5 2 -12 -3 -15 -5 -3
-9 1 -9 9 0 17 3 19 12 6z m0 -90 c3 -5 2 -12 -3 -15 -5 -3 -9 1 -9 9 0 17 3
19 12 6z m0 -120 c3 -5 2 -12 -3 -15 -5 -3 -9 1 -9 9 0 17 3 19 12 6z m0 -120
c3 -5 2 -12 -3 -15 -5 -3 -9 1 -9 9 0 17 3 19 12 6z m-338 -117 c-3 -3 -12 -4
-19 -1 -8 3 -5 6 6 6 11 1 17 -2 13 -5z m338 -3 c3 -5 2 -12 -3 -15 -5 -3 -9
1 -9 9 0 17 3 19 12 6z m5 -185 c0 -3 -4 -8 -10 -11 -5 -3 -10 -1 -10 4 0 6 5
11 10 11 6 0 10 -2 10 -4z"/>
<path d="M591 3354 c0 -11 3 -14 6 -6 3 7 2 16 -1 19 -3 4 -6 -2 -5 -13z"/>
<path d="M691 3363 c4 -21 -2 -34 -13 -27 -7 4 -8 3 -4 -4 10 -16 14 -15 26 7
7 14 7 22 0 26 -6 4 -10 3 -9 -2z"/>
<path d="M745 3360 c-7 -12 2 -30 16 -30 5 0 9 5 9 11 0 5 -5 7 -12 3 -8 -5
-9 -2 -5 9 7 19 2 23 -8 7z"/>
<path d="M780 3364 c0 -5 9 -15 19 -21 15 -10 20 -9 25 2 3 8 0 17 -6 21 -7 4
-8 3 -4 -4 9 -16 -7 -15 -22 0 -7 7 -12 8 -12 2z"/>
<path d="M842 3350 c-8 -13 -7 -17 4 -17 8 0 12 3 9 5 -3 3 3 10 11 17 14 10
14 12 2 12 -9 0 -20 -8 -26 -17z"/>
<path d="M890 3360 c0 -5 5 -10 11 -10 5 0 7 5 4 10 -3 6 -8 10 -11 10 -2 0
-4 -4 -4 -10z"/>
<path d="M930 3358 c0 -4 4 -8 9 -8 6 0 12 4 15 8 3 5 -1 9 -9 9 -8 0 -15 -4
-15 -9z"/>
<path d="M976 3355 c4 -8 8 -15 10 -15 2 0 4 7 4 15 0 8 -4 15 -10 15 -5 0 -7
-7 -4 -15z"/>
<path d="M1420 3351 c14 -28 13 -30 -15 -26 -14 1 -25 -2 -25 -8 0 -6 -3 -8
-6 -5 -3 4 0 17 6 30 11 22 11 22 -9 -2 -10 -13 -17 -28 -15 -32 3 -4 -2 -5
-11 -2 -12 5 -13 9 -4 20 6 8 8 14 3 14 -5 0 -2 5 6 11 13 9 13 10 0 6 -8 -2
-15 -8 -15 -13 0 -5 -4 -14 -8 -21 -4 -6 -2 -15 3 -18 8 -5 7 -12 -3 -23 -8
-10 -17 -25 -20 -34 -4 -10 -14 -18 -24 -18 -17 -1 -17 -1 -1 -11 20 -11 13
-39 -11 -39 -14 1 -14 2 2 14 17 13 17 14 -1 18 -21 6 -24 -21 -4 -44 15 -19
0 -40 -24 -32 -13 4 -15 3 -6 -3 14 -11 13 -73 -1 -73 -5 0 -7 -9 -4 -19 4
-16 0 -19 -22 -15 l-26 4 25 -15 c24 -13 24 -16 1 -19 -5 0 -13 -5 -18 -10 -4
-5 -3 -6 3 -3 7 4 14 0 18 -8 3 -8 1 -15 -4 -15 -5 0 -7 -6 -4 -14 3 -8 1 -17
-4 -20 -5 -3 -8 5 -7 19 2 13 -3 26 -11 29 -11 4 -12 1 -5 -13 16 -29 3 -59
-22 -55 -21 4 -21 4 -2 -5 12 -5 25 -5 33 2 9 7 11 6 7 -5 -4 -9 -16 -21 -28
-27 -21 -11 -21 -11 3 -6 14 3 20 2 13 -1 -7 -3 -10 -11 -7 -19 3 -7 0 -16 -5
-20 -6 -3 -8 -11 -5 -17 5 -7 2 -8 -6 -3 -10 6 -12 4 -7 -9 4 -10 1 -19 -8
-22 -7 -3 -11 -13 -8 -22 4 -15 3 -15 -6 -2 -8 11 -7 18 3 26 9 6 11 15 6 23
-6 11 -8 11 -12 0 -3 -9 -6 -8 -11 5 -4 10 -3 15 3 11 6 -3 10 -2 10 4 0 5 -6
12 -12 14 -7 3 2 4 20 3 17 -2 32 1 32 6 0 6 -9 8 -20 5 -20 -5 -50 15 -50 33
0 5 7 15 15 23 13 13 13 16 -1 21 -8 3 -12 2 -9 -4 3 -6 1 -10 -5 -10 -7 0
-10 6 -7 13 2 6 13 12 25 11 14 0 18 4 14 14 -3 9 -1 13 5 9 5 -3 10 0 10 8 0
13 -3 13 -16 2 -27 -24 -49 -28 -46 -9 1 9 0 22 -4 27 -10 17 -10 35 0 29 5
-3 6 -10 3 -16 -4 -7 -2 -8 4 -4 7 4 10 -1 7 -14 -3 -17 -1 -19 16 -10 24 13
25 22 2 13 -10 -3 -15 -3 -11 2 4 4 3 14 -2 21 -6 6 -9 17 -8 24 2 7 -4 15
-12 17 -13 4 -13 3 0 -7 13 -10 13 -11 0 -7 -8 2 -14 11 -12 20 1 8 -2 18 -8
22 -14 8 11 34 27 28 7 -3 10 -9 7 -14 -3 -5 -10 -7 -15 -4 -5 4 -9 2 -9 -2 0
-14 38 -34 45 -23 4 6 3 10 -2 9 -19 -3 -25 2 -15 14 9 10 6 17 -8 29 -13 12
-20 13 -23 5 -2 -7 -8 -9 -12 -5 -4 4 -3 14 3 21 7 8 9 17 6 20 -11 11 -13 57
-3 57 6 0 7 5 4 10 -11 17 -24 11 -20 -10 2 -11 0 -20 -6 -20 -5 0 -7 11 -5
25 3 13 1 27 -4 30 -6 3 -5 16 0 30 7 19 6 23 -5 18 -8 -3 -12 -10 -8 -16 3
-6 1 -7 -5 -3 -13 8 -5 36 12 36 6 0 3 5 -7 11 -10 6 -21 8 -24 5 -4 -3 -1 -6
6 -6 7 0 9 -5 5 -11 -4 -7 -13 -1 -24 16 -10 15 -20 22 -24 17 -3 -6 -3 -12 1
-15 10 -5 -16 3 -36 11 -8 3 -12 1 -8 -5 3 -5 0 -10 -8 -10 -8 0 -12 4 -9 9 3
4 -2 8 -10 8 -8 0 -17 -4 -20 -8 -5 -8 -50 -9 -66 -2 -3 1 -9 1 -15 0 -32 -8
-78 -8 -65 0 8 5 12 12 8 15 -8 8 -49 -45 -43 -55 3 -5 1 -11 -4 -15 -6 -3 -8
3 -6 14 2 11 -4 26 -13 33 -15 11 -15 11 -6 -2 6 -8 10 -27 9 -42 -2 -22 1
-25 15 -18 11 6 17 5 17 -3 0 -7 4 -20 8 -29 4 -11 3 -18 -5 -18 -6 0 -9 4 -6
8 9 15 -9 31 -24 22 -13 -8 -12 -10 2 -10 12 0 16 -6 13 -21 -3 -17 0 -20 14
-16 16 4 18 0 14 -26 -3 -17 0 -33 7 -37 6 -4 12 -13 13 -21 2 -8 6 -20 11
-28 7 -10 4 -12 -13 -6 -13 4 -21 2 -21 -5 0 -6 5 -8 11 -5 6 4 9 0 7 -11 -2
-12 3 -19 13 -18 11 1 14 -5 11 -22 -2 -13 -8 -24 -13 -24 -5 0 -9 -5 -9 -11
0 -8 5 -7 15 1 17 15 28 8 30 -18 0 -9 4 -23 9 -30 4 -7 3 -19 -3 -26 -6 -7
-7 -16 -3 -20 4 -4 -2 -14 -13 -23 -19 -14 -19 -14 -1 -11 12 2 20 -4 22 -14
8 -38 10 -43 18 -56 4 -7 2 -20 -5 -30 -10 -13 -8 -12 9 2 12 11 25 16 29 13
3 -4 1 -7 -6 -7 -7 0 -9 -5 -4 -12 11 -18 11 -72 0 -79 -5 -3 -2 -9 6 -12 11
-4 15 0 12 14 -2 10 1 19 7 19 5 0 8 -6 5 -14 -3 -7 -2 -17 1 -22 4 -5 5 -8 3
-7 -4 3 -31 -45 -31 -54 0 -3 8 5 18 17 17 21 19 21 25 6 4 -9 3 -15 -2 -12
-5 3 -11 -1 -15 -9 -3 -8 0 -17 6 -21 7 -4 8 -3 4 4 -5 8 -1 10 10 5 11 -4 13
-8 6 -11 -7 -2 -12 -8 -12 -13 0 -6 6 -7 13 -3 6 4 9 4 5 -1 -4 -4 -3 -14 3
-21 8 -9 3 -17 -18 -29 -26 -15 -19 -15 19 0 12 5 16 2 14 -12 -2 -10 1 -24 7
-30 5 -7 6 -13 2 -13 -4 0 -1 -8 6 -17 10 -11 10 -14 2 -9 -8 4 -13 2 -13 -4
0 -6 -5 -8 -12 -4 -7 4 -8 3 -4 -4 4 -7 2 -12 -5 -12 -7 0 -9 -3 -6 -6 4 -4
13 -1 21 5 23 19 37 5 26 -25 -6 -15 -6 -23 -1 -19 5 3 13 0 17 -6 4 -7 3 -9
-4 -5 -6 3 -14 1 -19 -6 -11 -19 -13 -39 -2 -32 5 3 7 10 4 15 -4 5 0 9 8 9 8
0 18 -7 21 -16 3 -8 2 -12 -3 -9 -5 3 -12 1 -16 -5 -3 -6 4 -10 17 -10 18 0
20 -2 8 -9 -8 -6 -17 -8 -20 -6 -3 2 -6 -6 -7 -18 0 -12 1 -17 4 -10 2 7 12 9
21 6 15 -4 15 -3 2 6 -8 6 -10 11 -4 11 20 0 37 -27 23 -36 -8 -4 -9 -3 -5 4
5 8 1 10 -9 5 -13 -4 -14 -8 -4 -14 7 -4 20 -4 28 0 20 9 87 8 97 -2 10 -10
26 -9 20 1 -2 4 6 8 19 8 13 0 21 -4 19 -8 -3 -4 2 -8 11 -8 9 0 14 4 11 8 -2
4 20 7 50 6 43 -1 57 2 68 17 7 10 16 16 20 12 4 -4 5 4 2 19 -3 18 -1 25 8
22 7 -3 12 4 12 16 0 11 -4 20 -9 20 -5 0 -1 7 7 16 9 8 14 19 11 24 -3 5 -1
11 5 15 6 4 7 11 4 17 -4 6 2 5 15 -2 12 -6 18 -16 15 -22 -4 -7 -2 -8 5 -4 9
6 9 11 0 22 -9 11 -8 20 6 40 9 15 13 24 7 20 -16 -10 -21 33 -6 48 16 17 19
30 3 21 -6 -4 -5 2 3 14 7 12 16 21 21 21 4 0 5 -4 2 -10 -3 -5 -1 -10 4 -10
16 0 13 16 -4 30 -11 9 -12 16 -5 25 5 6 7 15 3 18 -3 4 2 7 12 7 14 0 15 -3
6 -14 -9 -11 -8 -18 4 -30 20 -20 26 -20 19 -1 -4 8 -10 15 -16 15 -5 0 -7 4
-3 10 3 5 13 7 23 4 16 -5 16 -5 0 6 -10 6 -22 20 -28 30 -9 16 -8 18 5 14 13
-5 15 -1 11 20 -2 14 0 28 5 32 5 3 6 11 3 17 -4 7 -3 8 1 4 11 -10 16 -39 6
-32 -4 2 -8 -2 -8 -9 0 -11 4 -12 18 -3 10 6 15 14 11 17 -4 3 -8 10 -9 15 -1
6 -5 18 -8 28 -4 10 -3 17 4 17 6 0 10 -5 9 -11 -2 -6 3 -13 10 -14 7 -2 8 -1
3 1 -5 3 -7 17 -5 30 3 19 1 24 -8 18 -10 -6 -11 -5 -1 8 7 8 9 19 5 23 -4 5
-2 5 5 1 6 -3 14 -2 18 4 3 5 1 10 -6 10 -7 0 -10 3 -6 6 3 3 14 1 24 -5 14
-8 15 -11 3 -11 -10 -1 -9 -4 5 -10 l20 -9 -20 -1 c-11 -2 -24 -2 -28 -1 -5 1
-6 -3 -2 -9 3 -6 11 -8 16 -4 5 3 17 0 25 -7 13 -10 13 -15 -1 -36 -16 -23
-15 -24 3 -14 14 7 19 7 19 -4 0 -8 -4 -12 -9 -9 -4 3 -8 0 -8 -5 0 -6 7 -11
16 -11 8 0 12 -5 9 -11 -4 -6 -13 -8 -19 -6 -7 3 -13 -1 -13 -8 0 -10 5 -11
18 -5 16 9 26 1 27 -24 0 -5 6 -13 14 -18 10 -8 10 -9 -2 -5 -15 4 -39 -19
-40 -37 0 -6 6 -1 14 9 12 16 16 17 30 6 9 -7 14 -17 11 -21 -3 -5 -1 -11 4
-15 6 -3 7 -13 4 -22 -4 -11 -3 -14 6 -9 6 4 11 4 10 -1 -6 -33 3 -83 14 -80
7 1 12 -7 11 -20 -1 -13 3 -23 8 -23 5 0 6 -9 3 -20 -4 -13 -2 -20 5 -18 7 2
14 -5 15 -15 2 -9 -1 -15 -6 -11 -5 3 -6 11 -2 17 4 7 0 6 -10 -2 -9 -7 -17
-16 -17 -19 0 -3 3 -3 6 1 8 8 34 -18 34 -33 0 -6 5 -8 11 -4 7 4 7 -1 -1 -16
-13 -25 -4 -42 10 -20 6 8 10 10 10 5 0 -6 -6 -17 -12 -24 -11 -10 -9 -11 7
-5 18 7 19 6 5 -12 -8 -10 -10 -16 -6 -12 5 4 15 0 23 -10 13 -15 13 -15 8 8
-4 14 -3 20 2 15 10 -13 252 -14 272 -1 10 6 12 5 7 -2 -4 -7 -2 -12 3 -12 6
0 11 5 11 11 0 5 5 7 11 3 8 -4 8 0 0 15 -11 19 -8 25 11 23 3 -1 9 5 12 14 3
8 2 12 -3 9 -5 -3 -12 -1 -15 4 -4 5 -2 12 4 16 6 4 8 10 5 15 -3 5 -1 11 5
15 6 4 8 11 5 16 -4 5 -4 9 0 9 3 0 10 -10 15 -22 8 -18 8 -15 4 15 -6 37 2
47 23 26 8 -8 13 -8 18 0 3 6 1 10 -6 9 -6 -2 -14 3 -17 11 -3 9 0 11 8 6 9
-5 11 -4 6 4 -6 9 -11 9 -22 0 -8 -6 -17 -9 -21 -5 -3 3 -1 6 6 6 7 0 10 4 6
9 -3 5 -1 12 4 16 6 3 8 11 6 18 -3 7 -1 18 4 26 8 12 12 13 26 1 14 -11 16
-11 13 1 -2 8 3 13 12 11 8 -2 12 0 8 4 -4 4 -3 13 4 21 8 11 7 12 -6 7 -9 -3
-16 -9 -16 -13 0 -4 -9 -7 -20 -7 -20 0 -20 1 2 18 13 10 27 18 32 18 5 0 6 3
3 6 -4 4 -13 1 -21 -5 -12 -10 -15 -9 -13 8 0 11 5 17 11 14 5 -4 7 1 3 11 -5
14 -3 16 12 11 11 -3 22 -1 26 4 4 7 -1 8 -11 4 -11 -4 -15 -3 -10 5 3 6 1 14
-5 18 -8 5 -9 3 -4 -6 6 -9 4 -11 -4 -5 -13 8 -12 9 33 43 16 12 23 22 17 22
-7 0 -9 5 -5 12 4 7 3 8 -5 4 -6 -4 -9 -11 -6 -16 6 -10 -23 -35 -32 -26 -3 3
-1 6 6 6 8 0 11 8 8 20 -3 11 -1 18 3 15 10 -6 19 18 22 63 1 17 5 32 9 32 13
0 31 -29 24 -39 -4 -7 0 -8 10 -5 14 6 14 9 -5 29 -11 12 -17 25 -13 29 4 4
-1 4 -12 1 -14 -5 -16 -4 -7 3 8 5 13 12 13 16 -3 19 0 26 10 26 8 0 8 -5 -1
-15 -16 -19 -3 -20 16 -1 12 13 11 15 -6 21 -22 7 -26 20 -10 30 6 4 7 11 4
17 -4 7 -2 8 5 4 6 -4 9 -12 6 -17 -4 -5 -1 -9 5 -9 7 0 9 8 5 19 -4 13 0 23
12 30 10 6 13 11 8 11 -6 0 -16 -5 -23 -12 -7 -7 -12 -9 -12 -5 0 13 38 45 47
39 4 -4 2 0 -4 8 -17 18 -17 35 0 22 9 -8 17 -8 27 0 12 8 12 9 -3 4 -11 -3
-20 0 -23 9 -4 8 -11 12 -17 8 -6 -3 -7 -1 -3 6 6 9 11 9 24 -1 13 -11 14 -11
8 0 -4 7 -2 19 4 27 7 8 9 15 4 15 -5 0 -2 5 6 11 13 9 12 10 -2 5 -10 -3 -20
-1 -23 4 -4 6 2 10 12 10 10 0 14 4 8 8 -17 12 -15 30 3 28 11 -1 16 5 14 16
-2 13 2 16 15 12 15 -5 15 -4 3 4 -19 14 -33 4 -25 -17 5 -13 4 -14 -6 -3 -10
9 -10 15 -2 23 6 6 9 18 6 25 -3 8 0 14 7 14 6 0 8 -6 5 -12 -4 -7 0 -5 8 4 8
10 18 14 23 10 5 -4 -2 6 -16 22 l-25 30 30 -19 c20 -13 26 -14 18 -4 -10 12
-10 18 -1 27 7 7 8 12 3 12 -5 0 0 7 11 16 18 14 18 15 -4 4 -12 -6 -20 -15
-17 -20 3 -5 1 -11 -4 -14 -5 -3 -11 3 -14 14 -3 11 -2 18 3 15 9 -6 23 25 15
33 -3 3 -5 -1 -5 -9 0 -12 -2 -12 -9 0 -6 9 -6 22 -1 31 6 12 5 17 -5 17 -7 0
-11 -7 -7 -15 3 -10 1 -13 -6 -8 -6 3 -14 1 -18 -5 -4 -7 -3 -9 4 -5 6 3 13 2
16 -3 13 -20 -28 -3 -46 20 -17 21 -18 22 -9 2 6 -12 11 -23 11 -25 0 -2 -46
-3 -102 -3 -57 1 -109 -3 -115 -8 -7 -5 -13 -8 -14 -6 0 2 -3 15 -5 28 -6 33
-17 42 -12 11 2 -18 -1 -24 -12 -22 -12 2 -12 0 2 -11 15 -12 15 -14 -3 -25
-25 -16 -38 -15 -17 2 16 12 15 13 -12 14 -16 0 -32 -3 -35 -8 -3 -4 4 -6 15
-3 16 4 18 1 15 -18 -3 -12 -10 -26 -16 -30 -7 -4 -8 -9 -1 -13 6 -3 13 3 17
14 3 11 11 20 16 20 6 0 7 -6 2 -12 -10 -17 -15 -37 -16 -69 -1 -18 -6 -25
-14 -22 -13 5 -17 -8 -14 -36 2 -8 -3 -10 -11 -6 -11 7 -11 5 0 -6 11 -12 14
-12 22 1 5 8 10 10 10 5 0 -6 -10 -19 -21 -29 -12 -10 -18 -21 -13 -25 19 -13
15 -43 -5 -48 -25 -6 -26 -16 -6 -33 11 -9 12 -16 5 -25 -5 -6 -8 -14 -5 -17
3 -3 -4 -27 -15 -53 -21 -49 -22 -75 -5 -87 6 -5 5 -8 -2 -8 -7 0 -11 -6 -9
-12 1 -7 1 -10 -1 -5 -7 12 -23 8 -19 -5 1 -7 1 -10 -1 -5 -3 4 -10 4 -16 0
-7 -4 -6 1 2 10 9 12 10 17 2 17 -7 0 -10 4 -6 9 3 5 1 12 -5 16 -6 4 -8 11
-5 16 4 5 0 9 -7 9 -8 0 -9 3 -3 8 12 8 14 47 3 58 -4 3 -6 -3 -3 -14 2 -12
-2 -25 -8 -28 -7 -4 -9 -4 -5 1 4 4 3 14 -3 21 -7 8 -7 14 1 19 5 3 10 11 10
16 0 6 -5 7 -12 3 -7 -4 -8 -3 -4 4 4 7 1 12 -6 12 -9 0 -9 3 2 10 13 8 12 10
-3 10 -10 0 -16 4 -12 9 3 5 1 12 -4 16 -13 7 -5 46 11 57 9 5 4 7 -12 6 -13
-2 -25 2 -25 7 0 6 -4 16 -9 24 -6 10 -5 12 2 7 7 -4 12 -3 12 3 0 5 -5 11
-10 13 -6 2 -12 14 -15 27 -2 14 -9 29 -14 34 -11 11 -2 49 10 41 5 -3 8 0 7
8 -2 7 3 12 10 10 8 -1 11 2 7 8 -7 11 -29 -1 -48 -25 -5 -6 -7 -4 -5 5 4 23
-51 100 -68 93 -8 -3 -14 1 -14 8 0 7 3 9 7 6 3 -4 12 -2 20 4 9 9 13 8 13 0
0 -6 4 -11 8 -11 5 0 9 6 9 14 0 14 -21 16 -33 3 -4 -4 -14 -1 -22 6 -13 9
-14 9 -8 0 9 -16 11 -15 -92 -17 -46 -1 -86 2 -89 8 -4 5 -1 6 7 1 9 -5 11 -4
6 4 -4 6 -12 9 -17 6 -5 -4 -9 1 -9 9 0 9 -5 16 -10 16 -7 0 -7 -6 0 -19z
m870 -286 c0 -2 -6 -5 -13 -8 -8 -3 -14 1 -14 8 0 7 6 11 14 8 7 -3 13 -6 13
-8z m-1530 -9 c0 -2 -7 -7 -16 -10 -8 -3 -12 -2 -9 4 6 10 25 14 25 6z m1493
-61 c4 -8 3 -16 -1 -19 -4 -3 -9 4 -9 15 -2 23 3 25 10 4z m-1453 -123 c-9 -3
-9 -7 1 -14 12 -8 12 -9 0 -6 -8 2 -15 14 -16 26 -1 18 1 20 13 10 10 -9 11
-13 2 -16z m15 -56 c-1 -12 3 -25 9 -29 7 -6 7 -7 -2 -5 -8 2 -14 8 -14 13 0
6 -4 17 -8 26 -6 10 -5 16 4 16 7 0 12 -10 11 -21z m558 -371 c-3 -8 -10 -15
-15 -15 -7 0 -6 5 1 13 6 8 7 18 3 22 -4 5 -2 5 5 1 7 -4 10 -13 6 -21z"/>
<path d="M1510 3354 c0 -8 -4 -13 -8 -10 -4 2 -14 0 -22 -5 -11 -7 -8 -8 10
-6 14 2 26 11 28 20 2 10 1 17 -2 17 -3 0 -6 -7 -6 -16z"/>
<path d="M1552 3353 c8 -11 7 -12 -6 -7 -9 3 -16 2 -16 -3 0 -5 9 -9 19 -10
13 -1 19 4 18 16 0 10 -7 18 -14 18 -10 0 -10 -4 -1 -14z"/>
<path d="M1595 3360 c-16 -7 -17 -9 -3 -9 9 -1 20 4 23 9 7 11 7 11 -20 0z"/>
<path d="M2094 3362 c4 -7 2 -13 -3 -13 -6 -1 -15 -2 -20 -3 -6 0 -16 -8 -23
-16 -11 -12 -11 -12 2 -3 8 6 23 9 32 8 20 -3 32 21 16 31 -7 4 -8 3 -4 -4z"/>
<path d="M2122 3350 c-8 -13 -7 -17 4 -17 8 0 12 3 9 5 -3 3 3 10 11 17 14 10
14 12 2 12 -9 0 -20 -8 -26 -17z"/>
<path d="M2172 3365 c4 -4 0 -13 -8 -20 -15 -11 -15 -12 -1 -12 20 0 30 24 14
33 -7 4 -9 4 -5 -1z"/>
<path d="M2202 3350 c-8 -13 -7 -17 4 -17 8 0 12 3 9 5 -3 3 3 10 11 17 14 10
14 12 2 12 -9 0 -20 -8 -26 -17z"/>
<path d="M2655 3360 c-3 -5 -1 -10 4 -10 6 0 11 5 11 10 0 6 -2 10 -4 10 -3 0
-8 -4 -11 -10z"/>
<path d="M2745 3360 c-7 -12 2 -30 16 -30 5 0 9 5 9 11 0 5 -5 7 -12 3 -8 -5
-9 -2 -5 9 7 19 2 23 -8 7z"/>
<path d="M2983 3354 c-17 -18 -16 -19 7 -21 21 -2 24 5 12 23 -5 9 -10 8 -19
-2z"/>
<path d="M3020 3362 c0 -7 5 -12 11 -12 5 0 8 -4 5 -8 -3 -5 1 -9 9 -9 18 0
28 24 13 33 -7 4 -8 3 -4 -4 9 -16 -7 -15 -22 0 -9 9 -12 9 -12 0z"/>
<path d="M3082 3350 c-8 -13 -7 -17 4 -17 8 0 12 3 9 5 -3 3 3 10 11 17 14 10
14 12 2 12 -9 0 -20 -8 -26 -17z"/>
<path d="M3132 3365 c4 -4 0 -13 -8 -20 -15 -11 -15 -12 -1 -12 20 0 30 24 14
33 -7 4 -9 4 -5 -1z"/>
<path d="M3162 3350 c-8 -13 -7 -17 4 -17 8 0 12 3 9 5 -3 3 3 10 11 17 14 10
14 12 2 12 -9 0 -20 -8 -26 -17z"/>
<path d="M3212 3365 c4 -4 0 -13 -8 -20 -15 -11 -15 -12 -1 -12 20 0 30 24 14
33 -7 4 -9 4 -5 -1z"/>
<path d="M3242 3350 c-8 -13 -7 -17 4 -17 8 0 12 3 9 5 -3 3 3 10 11 17 14 10
14 12 2 12 -9 0 -20 -8 -26 -17z"/>
<path d="M3292 3365 c4 -4 0 -13 -8 -20 -15 -11 -15 -12 -1 -12 20 0 30 24 14
33 -7 4 -9 4 -5 -1z"/>
<path d="M3322 3350 c-8 -13 -7 -17 4 -17 8 0 12 3 9 6 -3 3 5 11 17 17 22 13
23 13 2 11 -12 0 -26 -8 -32 -17z"/>
<path d="M3815 3360 c-3 -5 -1 -10 4 -10 6 0 11 5 11 10 0 6 -2 10 -4 10 -3 0
-8 -4 -11 -10z"/>
<path d="M3850 3356 c7 -7 13 -7 20 0 6 6 3 10 -10 10 -13 0 -16 -4 -10 -10z"/>
<path d="M3990 3354 c0 -8 -4 -13 -8 -10 -4 2 -14 1 -21 -4 -9 -5 -3 -7 16 -7
23 1 29 6 25 19 -5 22 -12 23 -12 2z"/>
<path d="M4079 3368 c-5 -15 -4 -50 1 -53 3 -2 6 9 6 26 0 24 -3 37 -7 27z"/>
<path d="M655 3350 c-3 -6 1 -7 9 -4 18 7 21 14 7 14 -6 0 -13 -4 -16 -10z"/>
<path d="M1015 3351 c-3 -5 -2 -12 3 -15 5 -3 9 1 9 9 0 17 -3 19 -12 6z"/>
<path d="M1989 3343 c-13 -16 -12 -17 4 -4 9 7 17 15 17 17 0 8 -8 3 -21 -13z"/>
<path d="M3764 3346 c19 -15 18 -16 -5 -25 -15 -6 -18 -10 -8 -10 9 -1 22 5
28 13 10 12 8 17 -11 26 -22 10 -22 10 -4 -4z"/>
<path d="M240 3347 c0 -9 40 -35 44 -28 3 4 -6 13 -19 19 -14 7 -25 10 -25 9z"/>
<path d="M560 3340 c-9 -6 -10 -10 -3 -10 6 0 15 5 18 10 8 12 4 12 -15 0z"/>
<path d="M610 3339 c0 -5 5 -7 10 -4 6 3 10 8 10 11 0 2 -4 4 -10 4 -5 0 -10
-5 -10 -11z"/>
<path d="M1395 3340 c-3 -5 -1 -10 4 -10 6 0 11 5 11 10 0 6 -2 10 -4 10 -3 0
-8 -4 -11 -10z"/>
<path d="M2235 3340 c-3 -5 -1 -10 4 -10 6 0 11 5 11 10 0 6 -2 10 -4 10 -3 0
-8 -4 -11 -10z"/>
<path d="M2614 3338 c-4 -7 -3 -8 4 -4 7 4 12 3 12 -2 0 -5 7 -9 15 -9 20 0
19 4 -4 17 -14 7 -22 7 -27 -2z"/>
<path d="M3355 3340 c-3 -5 -1 -10 4 -10 6 0 11 5 11 10 0 6 -2 10 -4 10 -3 0
-8 -4 -11 -10z"/>
<path d="M3875 3340 c-3 -5 -1 -10 4 -10 6 0 11 5 11 10 0 6 -2 10 -4 10 -3 0
-8 -4 -11 -10z"/>
<path d="M1297 3327 c-3 -8 -1 -20 3 -28 6 -8 4 -16 -3 -21 -8 -5 -9 -8 -1 -8
6 0 18 8 25 17 10 11 10 14 2 9 -13 -7 -17 4 -14 32 2 16 -6 15 -12 -1z"/>
<path d="M3468 3333 c7 -3 16 -2 19 1 4 3 -2 6 -13 5 -11 0 -14 -3 -6 -6z"/>
<path d="M4110 3330 c-9 -6 -10 -10 -3 -10 6 0 15 5 18 10 8 12 4 12 -15 0z"/>
<path d="M1705 3319 c-4 -6 -5 -12 -2 -15 2 -3 7 2 10 11 7 17 1 20 -8 4z"/>
<path d="M2475 3310 c-3 -5 -1 -10 4 -10 6 0 11 5 11 10 0 6 -2 10 -4 10 -3 0
-8 -4 -11 -10z"/>
<path d="M1681 3305 c0 -16 36 -55 51 -55 8 0 7 4 -5 11 -9 6 -14 15 -11 21 4
6 2 8 -4 4 -6 -3 -15 2 -21 11 -6 10 -10 14 -10 8z"/>
<path d="M1737 3303 c-10 -9 -9 -33 1 -33 4 0 8 9 8 20 0 23 0 22 -9 13z"/>
<path d="M3713 3303 c4 -3 1 -13 -6 -22 -11 -14 -10 -14 6 -2 20 15 22 31 5
31 -6 0 -8 -3 -5 -7z"/>
<path d="M3734 3278 l-19 -23 23 19 c21 18 27 26 19 26 -2 0 -12 -10 -23 -22z"/>
<path d="M236 3278 c3 -5 10 -6 15 -3 13 9 11 12 -6 12 -8 0 -12 -4 -9 -9z"/>
<path d="M213 3265 c0 -8 4 -12 9 -9 5 3 6 10 3 15 -9 13 -12 11 -12 -6z"/>
<path d="M1036 3263 c-6 -14 -5 -15 5 -6 7 7 10 15 7 18 -3 3 -9 -2 -12 -12z"/>
<path d="M1270 3266 c0 -2 8 -10 18 -17 15 -13 16 -12 3 4 -13 16 -21 21 -21
13z"/>
<path d="M3470 3266 c0 -2 7 -9 15 -16 13 -11 14 -10 9 4 -5 14 -24 23 -24 12z"/>
<path d="M4134 3243 c2 -14 -2 -23 -13 -26 -14 -4 -14 -5 1 -6 22 -1 28 9 17
34 -9 19 -9 19 -5 -2z"/>
<path d="M1060 3240 c8 -5 20 -10 25 -10 6 0 3 5 -5 10 -8 5 -19 10 -25 10 -5
0 -3 -5 5 -10z"/>
<path d="M3710 3243 c0 -5 5 -15 11 -23 9 -13 10 -13 6 2 -3 9 -1 19 6 22 7 2
4 5 -5 5 -10 1 -18 -2 -18 -6z"/>
<path d="M3469 3238 c-11 -48 -7 -56 21 -38 11 7 11 10 2 10 -7 0 -11 4 -7 9
3 5 1 12 -5 16 -5 3 -10 5 -11 3z"/>
<path d="M239 3228 c-7 -15 -6 -58 1 -58 14 0 21 18 9 25 -5 4 -8 13 -5 21 4
11 -1 22 -5 12z"/>
<path d="M1947 3219 c7 -7 15 -10 18 -7 3 3 -2 9 -12 12 -14 6 -15 5 -6 -5z"/>
<path d="M1746 3197 c-17 -12 -17 -14 1 -28 17 -13 17 -13 3 5 -14 18 -13 19
3 13 10 -4 16 -3 12 2 -3 5 1 12 7 14 7 3 8 6 2 6 -5 1 -18 -5 -28 -12z"/>
<path d="M1077 3193 c-10 -9 -9 -23 1 -23 5 0 9 7 9 15 0 17 -1 18 -10 8z"/>
<path d="M1950 3190 c0 -5 5 -10 11 -10 5 0 7 5 4 10 -3 6 -8 10 -11 10 -2 0
-4 -4 -4 -10z"/>
<path d="M685 3170 c-16 -7 -17 -9 -3 -9 9 -1 20 4 23 9 7 11 7 11 -20 0z"/>
<path d="M3466 3173 c-11 -11 -6 -23 9 -23 8 0 15 4 15 9 0 13 -16 22 -24 14z"/>
<path d="M1220 3161 c0 -5 11 -8 25 -8 30 0 28 6 -4 12 -11 2 -21 0 -21 -4z"/>
<path d="M1770 3160 c0 -5 5 -10 11 -10 5 0 7 5 4 10 -3 6 -8 10 -11 10 -2 0
-4 -4 -4 -10z"/>
<path d="M4130 3156 c0 -8 4 -17 9 -20 5 -4 7 3 4 14 -6 23 -13 26 -13 6z"/>
<path d="M1080 3151 c0 -6 4 -13 10 -16 6 -3 7 1 4 9 -7 18 -14 21 -14 7z"/>
<path d="M2350 3151 c0 -7 -5 -9 -12 -5 -7 5 -8 3 -3 -5 5 -9 10 -10 18 -2 6
6 8 14 4 18 -4 3 -7 1 -7 -6z"/>
<path d="M230 3140 c-11 -7 -11 -10 -2 -10 7 0 11 -4 8 -8 -3 -5 1 -9 9 -9 10
0 12 4 5 12 -5 7 -7 15 -3 18 9 10 0 8 -17 -3z"/>
<path d="M1755 3130 c3 -5 8 -10 11 -10 2 0 4 5 4 10 0 6 -5 10 -11 10 -5 0
-7 -4 -4 -10z"/>
<path d="M3450 3135 c0 -2 6 -8 13 -14 10 -8 14 -7 14 2 0 8 -6 14 -14 14 -7
0 -13 -1 -13 -2z"/>
<path d="M680 3119 c0 -5 5 -7 10 -4 6 3 10 8 10 11 0 2 -4 4 -10 4 -5 0 -10
-5 -10 -11z"/>
<path d="M2315 3119 c-4 -6 -4 -13 -1 -16 3 -4 6 -1 6 6 0 7 5 9 12 5 7 -4 8
-3 4 4 -9 15 -13 15 -21 1z"/>
<path d="M705 3109 c-4 -6 -4 -13 -1 -16 3 -4 6 -1 6 6 0 7 5 9 12 5 7 -4 8
-3 4 4 -9 15 -13 15 -21 1z"/>
<path d="M1199 3093 c-13 -16 -12 -17 3 -5 10 8 19 9 22 3 3 -5 0 -12 -6 -14
-9 -4 -10 -6 -1 -6 19 -1 24 16 9 28 -10 9 -17 7 -27 -6z"/>
<path d="M1913 3095 c0 -8 4 -12 9 -9 4 3 8 9 8 15 0 5 -4 9 -8 9 -5 0 -9 -7
-9 -15z"/>
<path d="M4135 3100 c3 -5 8 -10 11 -10 2 0 4 5 4 10 0 6 -5 10 -11 10 -5 0
-7 -4 -4 -10z"/>
<path d="M1795 3090 c-4 -6 -10 -8 -14 -6 -4 3 -8 -1 -8 -9 0 -13 4 -12 19 2
18 16 22 23 14 23 -3 0 -8 -5 -11 -10z"/>
<path d="M4114 3083 c2 -9 8 -18 15 -19 6 -1 7 0 1 3 -5 2 -8 9 -5 13 3 5 1
11 -4 14 -5 4 -8 -2 -7 -11z"/>
<path d="M3391 3077 c-1 -11 -6 -15 -13 -11 -7 5 -8 3 -3 -5 10 -16 29 2 22
21 -4 8 -6 7 -6 -5z"/>
<path d="M3413 3075 c0 -8 4 -12 9 -9 5 3 6 10 3 15 -9 13 -12 11 -12 -6z"/>
<path d="M220 3070 c-12 -7 -10 -9 7 -7 12 0 19 5 17 9 -6 10 -6 10 -24 -2z"/>
<path d="M627 3066 c-4 -10 -1 -13 8 -9 8 3 12 9 9 14 -7 12 -11 11 -17 -5z"/>
<path d="M2763 3073 c-7 -2 -13 -9 -13 -15 0 -6 6 -6 15 2 8 6 20 8 26 4 8 -4
9 -3 5 4 -8 13 -13 14 -33 5z"/>
<path d="M3116 3071 c8 -8 43 -8 38 0 -2 4 -13 7 -24 6 -10 -1 -17 -3 -14 -6z"/>
<path d="M3280 3065 c-7 -9 -10 -18 -6 -22 3 -3 6 -1 6 6 0 7 4 10 8 7 5 -3 9
1 9 9 0 19 -2 19 -17 0z"/>
<path d="M3323 3073 c-15 -5 -17 -23 -4 -23 5 0 11 7 15 15 3 8 4 15 3 14 -1
0 -8 -3 -14 -6z"/>
<path d="M3728 3073 c-10 -2 -18 -9 -18 -14 0 -6 8 -5 20 1 11 6 20 13 20 15
0 3 -1 4 -2 4 -2 -1 -11 -3 -20 -6z"/>
<path d="M1921 3053 c7 -12 15 -20 18 -17 3 2 -3 12 -13 22 -17 16 -18 16 -5
-5z"/>
<path d="M3346 3061 c-3 -5 1 -14 9 -21 10 -9 15 -9 15 -1 0 6 -5 11 -11 11
-5 0 -7 5 -4 10 3 6 4 10 1 10 -3 0 -7 -4 -10 -9z"/>
<path d="M1198 3053 c7 -3 16 -2 19 1 4 3 -2 6 -13 5 -11 0 -14 -3 -6 -6z"/>
<path d="M236 3034 c-8 -20 0 -32 14 -18 5 5 5 15 1 22 -6 11 -10 10 -15 -4z"/>
<path d="M1895 3040 c3 -5 8 -10 11 -10 2 0 4 5 4 10 0 6 -5 10 -11 10 -5 0
-7 -4 -4 -10z"/>
<path d="M2306 3035 c4 -8 11 -15 16 -15 6 0 5 6 -2 15 -7 8 -14 15 -16 15 -2
0 -1 -7 2 -15z"/>
<path d="M2715 3040 c3 -5 8 -10 11 -10 2 0 4 5 4 10 0 6 -5 10 -11 10 -5 0
-7 -4 -4 -10z"/>
<path d="M4130 3036 c0 -8 4 -17 9 -20 5 -4 7 3 4 14 -6 23 -13 26 -13 6z"/>
<path d="M615 3031 c-3 -5 -2 -12 3 -15 5 -3 9 1 9 9 0 17 -3 19 -12 6z"/>
<path d="M712 3025 c4 -4 3 -14 -4 -22 -8 -11 -7 -12 6 -7 19 7 21 20 4 30 -7
4 -10 4 -6 -1z"/>
<path d="M1110 3020 c0 -5 5 -10 11 -10 5 0 7 5 4 10 -3 6 -8 10 -11 10 -2 0
-4 -4 -4 -10z"/>
<path d="M1798 3023 c7 -3 16 -2 19 1 4 3 -2 6 -13 5 -11 0 -14 -3 -6 -6z"/>
<path d="M4100 3005 c-9 -11 -9 -15 -1 -15 6 0 11 5 11 11 0 8 5 7 15 -1 9 -7
17 -11 20 -9 2 3 -4 10 -15 16 -14 10 -21 9 -30 -2z"/>
<path d="M1810 2988 c12 -10 27 -18 34 -18 6 1 0 7 -13 14 -17 10 -20 15 -10
19 8 3 3 4 -9 4 l-24 -1 22 -18z"/>
<path d="M3750 3002 c0 -6 5 -14 10 -17 6 -4 7 -11 4 -17 -4 -6 -10 -5 -15 3
-7 11 -9 11 -9 -2 0 -21 25 -32 38 -16 7 8 4 19 -9 36 -10 13 -19 18 -19 13z"/>
<path d="M4196 2997 c3 -10 9 -15 12 -12 3 3 0 11 -7 18 -10 9 -11 8 -5 -6z"/>
<path d="M4301 2999 c-1 -11 -10 -15 -36 -13 -19 2 -37 -1 -39 -5 -3 -5 8 -7
25 -5 17 2 36 1 42 -3 21 -13 45 -10 40 4 -3 7 -9 11 -13 8 -5 -3 -11 3 -13
12 -4 14 -5 15 -6 2z"/>
<path d="M4375 3000 c-3 -5 -1 -10 4 -10 6 0 11 5 11 10 0 6 -2 10 -4 10 -3 0
-8 -4 -11 -10z"/>
<path d="M4440 3006 c0 -2 8 -10 18 -17 15 -13 16 -12 3 4 -13 16 -21 21 -21
13z"/>
<path d="M2308 2983 c7 -3 16 -2 19 1 4 3 -2 6 -13 5 -11 0 -14 -3 -6 -6z"/>
<path d="M4422 2982 c2 -8 7 -13 12 -12 5 1 13 -4 18 -12 8 -11 9 -11 6 0 -2
8 -7 13 -12 12 -5 -1 -13 4 -18 12 -8 11 -9 11 -6 0z"/>
<path d="M1904 2965 c-10 -8 -14 -15 -8 -15 6 0 17 7 24 15 16 19 9 19 -16 0z"/>
<path d="M2750 2969 c0 -5 5 -7 10 -4 6 3 10 8 10 11 0 2 -4 4 -10 4 -5 0 -10
-5 -10 -11z"/>
<path d="M2841 2972 c-1 -8 -6 -10 -13 -6 -10 5 -10 4 -1 -6 15 -16 28 -8 20
12 -4 11 -6 11 -6 0z"/>
<path d="M4112 2966 c7 -8 15 -12 17 -11 5 6 -10 25 -20 25 -5 0 -4 -6 3 -14z"/>
<path d="M4150 2973 c8 -3 7 -9 -1 -19 -10 -12 -9 -13 5 -8 18 7 17 26 -2 30
-7 1 -8 0 -2 -3z"/>
<path d="M755 2961 c3 -6 -3 -15 -12 -21 -16 -10 -16 -11 -1 -6 10 3 20 1 23
-4 4 -6 -2 -10 -11 -10 -10 0 -15 -3 -11 -6 3 -4 14 -4 23 0 13 5 14 10 6 18
-6 6 -8 17 -5 24 3 8 0 14 -7 14 -6 0 -9 -4 -5 -9z"/>
<path d="M2286 2962 c-3 -5 1 -9 9 -9 8 0 15 4 15 9 0 4 -4 8 -9 8 -6 0 -12
-4 -15 -8z"/>
<path d="M1836 2947 c3 -10 9 -15 12 -12 3 3 0 11 -7 18 -10 9 -11 8 -5 -6z"/>
<path d="M1156 2933 c-6 -14 -5 -15 5 -6 7 7 10 15 7 18 -3 3 -9 -2 -12 -12z"/>
<path d="M2947 2936 c-3 -8 -2 -18 4 -22 16 -9 22 2 11 21 -8 15 -10 16 -15 1z"/>
<path d="M2975 2940 c3 -5 8 -10 11 -10 2 0 4 5 4 10 0 6 -5 10 -11 10 -5 0
-7 -4 -4 -10z"/>
<path d="M1888 2933 c6 -3 10 -9 6 -14 -3 -5 -1 -9 4 -9 21 0 19 26 -2 27 -11
0 -15 -1 -8 -4z"/>
<path d="M2273 2933 c-18 -7 -16 -20 2 -20 8 0 12 4 9 8 -2 4 2 10 8 12 7 3 9
5 3 5 -5 0 -16 -2 -22 -5z"/>
<path d="M3035 2930 c-3 -5 -1 -10 4 -10 6 0 11 5 11 10 0 6 -2 10 -4 10 -3 0
-8 -4 -11 -10z"/>
<path d="M1860 2920 c0 -5 5 -10 11 -10 5 0 7 5 4 10 -3 6 -8 10 -11 10 -2 0
-4 -4 -4 -10z"/>
<path d="M3098 2918 c5 -5 16 -8 23 -6 8 3 3 7 -10 11 -17 4 -21 3 -13 -5z"/>
<path d="M220 2916 c0 -2 7 -7 16 -10 8 -3 12 -2 9 4 -6 10 -25 14 -25 6z"/>
<path d="M1881 2884 c0 -11 3 -14 6 -6 3 7 2 16 -1 19 -3 4 -6 -2 -5 -13z"/>
<path d="M1114 2880 c2 -16 20 -14 24 2 3 10 2 10 -6 -1 -7 -9 -11 -10 -15 -2
-4 7 -5 8 -3 1z"/>
<path d="M2250 2880 c-8 -5 -10 -10 -5 -10 6 0 17 5 25 10 8 5 11 10 5 10 -5
0 -17 -5 -25 -10z"/>
<path d="M2335 2880 c-3 -5 -1 -10 4 -10 6 0 11 5 11 10 0 6 -2 10 -4 10 -3 0
-8 -4 -11 -10z"/>
<path d="M3280 2881 c0 -6 5 -11 11 -11 8 0 8 -4 0 -14 -9 -11 -9 -16 1 -22 7
-4 10 -4 6 1 -4 4 -3 14 2 20 7 9 6 16 -5 25 -10 9 -15 9 -15 1z"/>
<path d="M210 2859 c0 -5 5 -7 10 -4 6 3 10 8 10 11 0 2 -4 4 -10 4 -5 0 -10
-5 -10 -11z"/>
<path d="M2310 2860 c0 -5 5 -10 11 -10 5 0 7 5 4 10 -3 6 -8 10 -11 10 -2 0
-4 -4 -4 -10z"/>
<path d="M1853 2845 c0 -8 4 -12 9 -9 4 3 8 0 8 -5 0 -6 5 -11 10 -11 6 0 5 8
-2 20 -15 24 -25 26 -25 5z"/>
<path d="M3351 2827 c17 -32 23 -35 15 -10 -6 19 -4 22 11 16 10 -3 15 -3 12
1 -4 4 -16 8 -28 11 -19 3 -20 2 -10 -18z"/>
<path d="M2350 2830 c-8 -5 -10 -10 -5 -10 6 0 17 5 25 10 8 5 11 10 5 10 -5
0 -17 -5 -25 -10z"/>
<path d="M630 2820 c-9 -6 -10 -10 -3 -10 6 0 15 5 18 10 8 12 4 12 -15 0z"/>
<path d="M750 2826 c0 -2 7 -7 16 -10 8 -3 12 -2 9 4 -6 10 -25 14 -25 6z"/>
<path d="M2356 2799 c3 -5 10 -6 16 -3 8 5 9 1 5 -10 -4 -11 -3 -15 4 -11 14
10 6 28 -14 31 -9 1 -15 -2 -11 -7z"/>
<path d="M4495 2791 c2 -18 30 -27 39 -12 4 5 -3 7 -16 3 -20 -5 -21 -3 -11
10 10 12 10 15 -1 15 -8 0 -13 -7 -11 -16z"/>
<path d="M774 2770 c0 -13 4 -16 10 -10 7 7 7 13 0 20 -6 6 -10 3 -10 -10z"/>
<path d="M1510 2780 c-11 -7 -11 -10 -2 -10 8 0 10 -5 6 -12 -5 -9 -3 -9 9 1
9 7 14 17 11 22 -6 11 -6 11 -24 -1z"/>
<path d="M2406 2763 c-6 -14 -5 -15 5 -6 7 7 10 15 7 18 -3 3 -9 -2 -12 -12z"/>
<path d="M3445 2760 c-10 -11 -13 -20 -7 -20 7 0 12 5 12 11 0 5 4 8 8 5 5 -3
9 1 9 9 0 19 0 19 -22 -5z"/>
<path d="M4494 2734 c0 -20 11 -25 11 -6 0 4 3 12 7 18 4 6 1 11 -5 11 -7 0
-13 -11 -13 -23z"/>
<path d="M2505 2739 c-4 -6 -4 -13 -1 -16 3 -4 6 -1 6 6 0 7 5 9 12 5 7 -4 8
-3 4 4 -9 15 -13 15 -21 1z"/>
<path d="M810 2729 c0 -5 -4 -8 -8 -5 -5 3 -9 -1 -9 -9 0 -8 6 -16 13 -19 9
-3 11 1 7 11 -4 11 -2 14 5 9 8 -5 10 -2 6 8 -7 18 -14 21 -14 5z"/>
<path d="M3468 2733 c7 -3 16 -2 19 1 4 3 -2 6 -13 5 -11 0 -14 -3 -6 -6z"/>
<path d="M3715 2731 c3 -5 -1 -11 -7 -14 -7 -3 -3 -4 10 -4 25 1 29 12 6 21
-8 3 -13 2 -9 -3z"/>
<path d="M1500 2720 c8 -5 20 -10 25 -10 6 0 3 5 -5 10 -8 5 -19 10 -25 10 -5
0 -3 -5 5 -10z"/>
<path d="M2200 2726 c0 -2 8 -10 18 -17 15 -13 16 -12 3 4 -13 16 -21 21 -21
13z"/>
<path d="M2575 2709 c-5 -8 -4 -10 0 -6 5 4 15 -3 22 -15 7 -13 12 -18 13 -12
0 5 -6 18 -13 29 -12 15 -15 16 -22 4z"/>
<path d="M3477 2709 c7 -7 15 -10 18 -7 3 3 -2 9 -12 12 -14 6 -15 5 -6 -5z"/>
<path d="M630 2700 c-9 -6 -10 -10 -3 -10 6 0 15 5 18 10 8 12 4 12 -15 0z"/>
<path d="M4510 2701 c0 -6 4 -12 8 -15 5 -3 9 1 9 9 0 8 -4 15 -9 15 -4 0 -8
-4 -8 -9z"/>
<path d="M1492 2691 c-11 -7 -11 -9 0 -14 9 -3 15 1 15 9 0 8 -1 14 -1 14 -1
0 -7 -4 -14 -9z"/>
<path d="M3490 2679 c0 -5 -5 -7 -11 -3 -7 4 -6 -3 2 -17 7 -13 13 -28 14 -33
0 -5 7 -11 15 -13 13 -4 13 -3 0 6 -8 6 -11 11 -6 11 5 0 3 6 -3 14 -6 7 -9
21 -5 30 3 9 3 16 0 16 -3 0 -6 -5 -6 -11z"/>
<path d="M237 2673 c-10 -9 -9 -23 1 -23 5 0 9 7 9 15 0 17 -1 18 -10 8z"/>
<path d="M3713 2663 c0 -8 6 -9 19 -2 10 5 18 11 18 12 0 2 -8 3 -18 3 -10 0
-19 -6 -19 -13z"/>
<path d="M1550 2666 c0 -2 7 -7 16 -10 8 -3 12 -2 9 4 -6 10 -25 14 -25 6z"/>
<path d="M2800 2660 c-13 -8 -13 -11 -1 -22 8 -8 11 -8 7 -1 -3 6 0 13 6 16 7
2 11 7 8 10 -3 3 -12 2 -20 -3z"/>
<path d="M4510 2660 c-12 -7 -10 -9 7 -7 12 0 19 5 17 9 -6 10 -6 10 -24 -2z"/>
<path d="M1537 2639 c6 -23 9 -24 16 -5 3 8 0 17 -7 19 -10 4 -12 -1 -9 -14z"/>
<path d="M2837 2647 c-15 -11 -14 -12 12 -12 23 -1 28 2 19 12 -13 16 -10 16
-31 0z"/>
<path d="M816 2635 c4 -8 8 -15 10 -15 2 0 4 7 4 15 0 8 -4 15 -10 15 -5 0 -7
-7 -4 -15z"/>
<path d="M1455 2640 c3 -5 8 -10 11 -10 2 0 4 5 4 10 0 6 -5 10 -11 10 -5 0
-7 -4 -4 -10z"/>
<path d="M2180 2639 c0 -5 5 -7 10 -4 6 3 10 8 10 11 0 2 -4 4 -10 4 -5 0 -10
-5 -10 -11z"/>
<path d="M2770 2641 c0 -6 4 -13 10 -16 6 -3 7 1 4 9 -7 18 -14 21 -14 7z"/>
<path d="M3734 2634 c3 -9 6 -18 6 -20 0 -2 5 -4 11 -4 8 0 9 4 0 13 -6 8 -8
17 -4 20 3 4 1 7 -6 7 -8 0 -11 -6 -7 -16z"/>
<path d="M4788 2611 c4 -10 1 -12 -8 -6 -9 5 -11 4 -6 -3 5 -9 12 -8 26 1 25
15 25 23 1 23 -12 0 -17 -5 -13 -15z"/>
<path d="M233 2612 c-9 -6 -7 -11 6 -19 15 -10 19 -9 17 2 -3 20 -10 25 -23
17z"/>
<path d="M2944 2609 c1 -7 10 -13 19 -15 9 -1 15 2 11 7 -3 5 -9 7 -14 4 -4
-3 -11 0 -13 5 -3 6 -4 5 -3 -1z"/>
<path d="M4650 2609 c0 -5 5 -7 10 -4 6 3 10 8 10 11 0 2 -4 4 -10 4 -5 0 -10
-5 -10 -11z"/>
<path d="M4834 2605 c-4 -8 -11 -12 -17 -8 -6 4 -7 1 -3 -6 5 -7 11 -10 14 -7
3 3 14 -1 24 -11 10 -9 18 -11 18 -6 0 6 -7 14 -16 17 -9 4 -14 13 -10 21 3 8
3 15 0 15 -2 0 -7 -7 -10 -15z"/>
<path d="M1576 2601 c-3 -5 1 -17 10 -25 21 -21 30 -21 13 1 -8 9 -12 18 -11
20 2 3 1 7 -1 9 -3 3 -8 1 -11 -5z"/>
<path d="M3074 2598 c-4 -7 -4 -10 1 -6 4 4 13 0 20 -9 11 -14 12 -14 19 3 4
10 4 15 0 11 -4 -4 -13 -2 -20 4 -9 7 -14 6 -20 -3z"/>
<path d="M3715 2600 c-3 -6 1 -13 10 -16 12 -5 13 -9 4 -20 -7 -8 -10 -16 -8
-19 3 -2 10 5 17 16 10 16 10 20 -3 25 -8 3 -12 10 -9 15 3 5 3 9 0 9 -3 0 -8
-5 -11 -10z"/>
<path d="M210 2579 c0 -5 5 -7 10 -4 6 3 10 8 10 11 0 2 -4 4 -10 4 -5 0 -10
-5 -10 -11z"/>
<path d="M3050 2580 c0 -5 5 -10 11 -10 5 0 7 5 4 10 -3 6 -8 10 -11 10 -2 0
-4 -4 -4 -10z"/>
<path d="M4495 2581 c6 -11 4 -13 -9 -8 -14 6 -15 3 -5 -14 10 -20 11 -20 30
-3 10 9 19 19 19 22 0 3 -3 2 -7 -1 -3 -4 -13 -1 -21 6 -13 10 -14 9 -7 -2z"/>
<path d="M830 2576 c0 -2 8 -10 18 -17 15 -13 16 -12 3 4 -13 16 -21 21 -21
13z"/>
<path d="M1555 2560 c3 -5 8 -10 11 -10 2 0 4 5 4 10 0 6 -5 10 -11 10 -5 0
-7 -4 -4 -10z"/>
<path d="M3075 2560 c-3 -5 -1 -10 4 -10 6 0 11 5 11 10 0 6 -2 10 -4 10 -3 0
-8 -4 -11 -10z"/>
<path d="M1430 2530 c-6 -11 -8 -20 -6 -20 3 0 10 9 16 20 6 11 8 20 6 20 -3
0 -10 -9 -16 -20z"/>
<path d="M3010 2539 c0 -5 5 -7 10 -4 6 3 10 8 10 11 0 2 -4 4 -10 4 -5 0 -10
-5 -10 -11z"/>
<path d="M859 2523 c-12 -16 -12 -17 2 -6 9 7 20 9 24 5 5 -4 5 -1 1 6 -9 16
-11 15 -27 -5z"/>
<path d="M1590 2530 c0 -6 5 -8 12 -4 8 5 9 2 5 -9 -3 -9 -2 -19 2 -21 5 -3 8
4 7 16 -1 22 -26 39 -26 18z"/>
<path d="M3120 2535 c0 -7 30 -13 34 -7 3 4 -4 9 -15 9 -10 1 -19 0 -19 -2z"/>
<path d="M2470 2520 c-9 -6 -10 -10 -3 -10 6 0 15 5 18 10 8 12 4 12 -15 0z"/>
<path d="M2615 2520 c-3 -5 -1 -10 4 -10 6 0 11 5 11 10 0 6 -2 10 -4 10 -3 0
-8 -4 -11 -10z"/>
<path d="M2742 2517 c10 -8 16 -16 13 -19 -3 -2 2 -5 10 -5 8 0 12 4 9 8 -2 4
1 10 6 12 6 3 5 4 -2 3 -7 -2 -22 1 -33 6 -18 8 -19 8 -3 -5z"/>
<path d="M3493 2510 c1 -11 4 -20 8 -20 10 0 19 27 12 34 -12 12 -22 5 -20
-14z"/>
<path d="M3716 2518 c3 -5 10 -6 15 -3 13 9 11 12 -6 12 -8 0 -12 -4 -9 -9z"/>
<path d="M2703 2507 c0 -7 9 -13 19 -13 10 0 18 1 18 3 0 1 -8 7 -18 12 -13 7
-19 6 -19 -2z"/>
<path d="M1385 2501 c-6 -11 9 -23 19 -14 9 9 7 23 -3 23 -6 0 -12 -4 -16 -9z"/>
<path d="M2355 2500 c-3 -5 -3 -10 1 -10 4 0 -1 -7 -12 -16 -18 -15 -18 -15 0
-6 11 5 21 17 22 26 3 18 -2 21 -11 6z"/>
<path d="M2660 2502 c0 -5 7 -9 15 -9 8 0 15 4 15 9 0 4 -7 8 -15 8 -8 0 -15
-4 -15 -8z"/>
<path d="M2900 2502 c0 -5 7 -9 15 -9 8 0 15 4 15 9 0 4 -7 8 -15 8 -8 0 -15
-4 -15 -8z"/>
<path d="M4874 2493 c3 -20 22 -28 31 -14 3 7 0 8 -10 5 -11 -5 -14 -2 -9 10
3 9 2 16 -4 16 -6 0 -9 -8 -8 -17z"/>
<path d="M3660 2491 c0 -6 4 -13 10 -16 6 -3 7 1 4 9 -7 18 -14 21 -14 7z"/>
<path d="M3725 2489 c-4 -6 -5 -12 -2 -15 2 -3 7 2 10 11 7 17 1 20 -8 4z"/>
<path d="M880 2479 c0 -5 5 -7 10 -4 6 3 10 8 10 11 0 2 -4 4 -10 4 -5 0 -10
-5 -10 -11z"/>
<path d="M2110 2479 c0 -5 5 -7 10 -4 6 3 10 8 10 11 0 2 -4 4 -10 4 -5 0 -10
-5 -10 -11z"/>
<path d="M1597 2459 c7 -7 15 -10 18 -7 3 3 -2 9 -12 12 -14 6 -15 5 -6 -5z"/>
<path d="M2114 2454 c-18 -14 -18 -15 4 -4 12 6 22 13 22 15 0 8 -5 6 -26 -11z"/>
<path d="M3656 2456 c6 -15 4 -17 -6 -11 -9 6 -11 4 -5 -4 5 -9 10 -10 18 -2
8 8 7 14 -2 24 -10 10 -11 8 -5 -7z"/>
<path d="M880 2445 c-7 -8 -9 -15 -6 -15 4 0 14 7 22 15 9 8 11 15 6 15 -5 0
-15 -7 -22 -15z"/>
<path d="M1637 2453 c-10 -9 -9 -23 1 -23 5 0 9 7 9 15 0 17 -1 18 -10 8z"/>
<path d="M242 2438 c-15 -15 -15 -28 0 -28 6 0 8 3 5 7 -4 3 -2 12 4 20 14 16
7 17 -9 1z"/>
<path d="M1399 2448 c-5 -18 -6 -38 -1 -34 7 8 12 36 6 36 -2 0 -4 -1 -5 -2z"/>
<path d="M2331 2438 c-1 -21 15 -32 25 -17 4 7 3 9 -4 5 -6 -3 -13 2 -15 11
-4 16 -5 16 -6 1z"/>
<path d="M3510 2440 c14 -9 7 -14 -13 -11 -5 1 -6 -3 -2 -9 5 -8 11 -8 21 1
15 12 10 29 -9 29 -7 0 -6 -4 3 -10z"/>
<path d="M4874 2443 c3 -6 2 -14 -3 -18 -16 -9 -1 -34 19 -32 19 1 18 11 -1
13 -22 3 -23 5 -9 14 13 8 13 11 1 22 -9 8 -11 9 -7 1z"/>
<path d="M3666 2415 c-17 -26 -13 -34 7 -12 12 12 20 37 13 37 -2 0 -11 -11
-20 -25z"/>
<path d="M2321 2394 c0 -11 3 -14 6 -6 3 7 2 16 -1 19 -3 4 -6 -2 -5 -13z"/>
<path d="M3466 2398 c3 -4 15 -13 27 -18 20 -10 20 -10 5 3 -10 8 -16 16 -13
19 3 2 -2 5 -10 5 -8 0 -12 -4 -9 -9z"/>
<path d="M915 2389 c-4 -6 -5 -12 -2 -15 2 -3 7 2 10 11 7 17 1 20 -8 4z"/>
<path d="M1345 2390 c-3 -5 -4 -10 0 -10 3 0 1 -8 -4 -18 -8 -15 -5 -18 17
-19 15 0 19 1 10 4 -10 2 -18 9 -18 14 0 6 6 7 13 3 9 -6 9 -5 0 8 -7 8 -10
18 -6 21 3 4 4 7 0 7 -3 0 -9 -4 -12 -10z"/>
<path d="M1616 2383 c-6 -14 -5 -15 5 -6 7 7 10 15 7 18 -3 3 -9 -2 -12 -12z"/>
<path d="M2100 2386 c0 -2 8 -10 18 -17 15 -13 16 -12 3 4 -13 16 -21 21 -21
13z"/>
<path d="M228 2373 c7 -3 16 -2 19 1 4 3 -2 6 -13 5 -11 0 -14 -3 -6 -6z"/>
<path d="M3670 2373 c5 -2 10 -9 10 -14 0 -6 -4 -7 -10 -4 -15 9 -12 -1 4 -14
10 -9 13 -7 12 11 0 12 -7 23 -14 24 -7 1 -8 0 -2 -3z"/>
<path d="M4873 2373 c4 -3 1 -13 -6 -22 -11 -14 -10 -14 6 -2 20 15 22 31 5
31 -6 0 -8 -3 -5 -7z"/>
<path d="M890 2361 c0 -6 4 -13 10 -16 6 -3 7 1 4 9 -7 18 -14 21 -14 7z"/>
<path d="M2330 2360 c0 -5 5 -10 10 -10 6 0 10 5 10 10 0 6 -4 10 -10 10 -5 0
-10 -4 -10 -10z"/>
<path d="M213 2333 c0 -9 4 -10 14 -2 7 6 13 12 13 14 0 1 -6 2 -13 2 -8 0
-14 -6 -14 -14z"/>
<path d="M1637 2339 c7 -7 15 -10 18 -7 3 3 -2 9 -12 12 -14 6 -15 5 -6 -5z"/>
<path d="M2315 2330 c-3 -5 -1 -10 4 -10 6 0 11 5 11 10 0 6 -2 10 -4 10 -3 0
-8 -4 -11 -10z"/>
<path d="M1330 2320 c0 -6 7 -13 15 -16 8 -4 12 -10 9 -15 -3 -5 -10 -6 -16
-3 -7 4 -8 2 -4 -5 6 -9 11 -9 23 0 13 12 13 14 -1 24 -9 7 -13 15 -9 18 3 4
1 7 -5 7 -7 0 -12 -5 -12 -10z"/>
<path d="M2063 2317 c-4 -6 -1 -7 7 -2 7 4 16 2 21 -6 7 -11 9 -11 9 -1 0 7 4
11 9 7 5 -3 12 -2 14 2 3 5 -8 9 -24 9 -16 1 -32 -3 -36 -9z"/>
<path d="M3417 2310 c-3 -11 -3 -20 -1 -20 2 0 8 9 14 20 6 11 7 20 2 20 -6 0
-12 -9 -15 -20z"/>
<path d="M3653 2317 c0 -8 6 -14 13 -14 7 0 10 6 7 14 -3 7 -8 13 -12 13 -4 0
-8 -6 -8 -13z"/>
<path d="M615 2311 c-3 -5 -2 -12 3 -15 5 -3 9 1 9 9 0 17 -3 19 -12 6z"/>
<path d="M2335 2311 c-3 -5 -2 -12 3 -15 5 -3 9 1 9 9 0 17 -3 19 -12 6z"/>
<path d="M1675 2299 c-4 -6 -5 -12 -2 -15 2 -3 7 2 10 11 7 17 1 20 -8 4z"/>
<path d="M3655 2280 c-8 -13 5 -13 25 0 13 8 13 10 -2 10 -9 0 -20 -4 -23 -10z"/>
<path d="M4862 2277 c-8 -10 -6 -16 11 -27 20 -12 21 -12 8 4 -8 9 -11 20 -7
23 4 4 12 1 17 -7 9 -13 10 -13 7 -1 -6 20 -23 24 -36 8z"/>
<path d="M1316 2253 c-6 -14 -5 -15 5 -6 7 7 10 15 7 18 -3 3 -9 -2 -12 -12z"/>
<path d="M2070 2260 c0 -5 5 -10 10 -10 6 0 10 5 10 10 0 6 -4 10 -10 10 -5 0
-10 -4 -10 -10z"/>
<path d="M4496 2255 c-3 -9 -11 -13 -17 -9 -8 4 -9 3 -5 -5 6 -9 11 -9 22 0 8
6 18 9 21 5 4 -4 1 -11 -7 -16 -9 -6 -10 -10 -3 -10 20 0 26 21 11 37 -14 13
-16 13 -22 -2z"/>
<path d="M1677 2247 c-3 -8 1 -14 8 -14 7 0 11 6 8 14 -3 7 -6 13 -8 13 -2 0
-5 -6 -8 -13z"/>
<path d="M3672 2246 c7 -8 15 -12 17 -11 5 6 -10 25 -20 25 -5 0 -4 -6 3 -14z"/>
<path d="M1283 2234 c-3 -8 -12 -13 -20 -10 -8 3 -11 1 -8 -4 10 -16 23 -12
35 10 6 11 8 20 5 20 -3 0 -8 -7 -12 -16z"/>
<path d="M3647 2239 c7 -7 15 -10 18 -7 3 3 -2 9 -12 12 -14 6 -15 5 -6 -5z"/>
<path d="M2355 2229 c-4 -6 -5 -12 -2 -15 2 -3 7 2 10 11 7 17 1 20 -8 4z"/>
<path d="M3137 2226 c-16 -12 -15 -14 12 -12 23 0 27 4 19 13 -6 7 -11 13 -12
13 0 0 -9 -7 -19 -14z"/>
<path d="M4440 2220 c-6 -11 -8 -24 -5 -29 3 -5 -1 -11 -7 -14 -7 -3 -3 -4 9
-4 16 1 19 5 12 13 -12 14 -1 46 14 37 6 -3 7 -1 3 5 -10 16 -14 15 -26 -8z"/>
<path d="M552 2210 c-6 -11 -12 -23 -12 -27 0 -5 5 0 11 10 7 13 14 15 22 8 9
-7 20 -3 37 11 l25 20 -27 -16 c-24 -14 -28 -14 -35 -1 -7 12 -11 11 -21 -5z"/>
<path d="M1000 2196 c-18 -23 -19 -26 -4 -13 11 9 24 14 29 10 4 -5 4 -2 0 6
-6 11 -4 13 9 8 10 -4 20 -7 22 -7 3 0 2 -5 -2 -12 -5 -7 -3 -8 6 -3 10 6 10
11 -3 20 -9 7 -15 14 -12 17 3 2 -1 5 -7 5 -7 0 -24 -14 -38 -31z"/>
<path d="M1070 2220 c0 -5 5 -10 11 -10 5 0 7 5 4 10 -3 6 -8 10 -11 10 -2 0
-4 -4 -4 -10z"/>
<path d="M1190 2222 c0 -5 6 -15 14 -21 12 -10 14 -9 12 5 -3 19 -26 33 -26
16z"/>
<path d="M1775 2212 c-3 -8 -3 -17 0 -20 3 -3 5 0 5 6 0 7 5 12 11 12 5 0 8
-4 5 -8 -3 -5 1 -9 9 -9 8 0 15 4 15 9 0 4 -5 8 -11 8 -5 0 -8 4 -5 8 3 5 -1
9 -9 9 -8 0 -17 -7 -20 -15z"/>
<path d="M1830 2220 c0 -6 4 -9 9 -5 5 3 12 -2 14 -10 4 -12 5 -12 3 1 -1 19
-26 32 -26 14z"/>
<path d="M1870 2218 c0 -4 7 -8 15 -8 8 0 15 4 15 8 0 5 -7 9 -15 9 -8 0 -15
-4 -15 -9z"/>
<path d="M1935 2212 c-3 -8 -3 -17 0 -20 3 -3 5 0 5 6 0 7 5 12 11 12 5 0 8
-4 5 -8 -3 -5 1 -9 9 -9 8 0 15 4 15 9 0 4 -5 8 -11 8 -5 0 -8 4 -5 8 3 5 -1
9 -9 9 -8 0 -17 -7 -20 -15z"/>
<path d="M1990 2218 c0 -4 4 -8 9 -8 6 0 12 4 15 8 3 5 -1 9 -9 9 -8 0 -15 -4
-15 -9z"/>
<path d="M2055 2220 c3 -5 8 -10 11 -10 2 0 4 5 4 10 0 6 -5 10 -11 10 -5 0
-7 -4 -4 -10z"/>
<path d="M2390 2220 c0 -6 7 -10 15 -10 8 0 15 2 15 4 0 2 -7 6 -15 10 -8 3
-15 1 -15 -4z"/>
<path d="M2487 2209 c4 -13 8 -18 11 -10 2 7 -1 18 -6 23 -8 8 -9 4 -5 -13z"/>
<path d="M2510 2218 c0 -4 7 -8 15 -8 8 0 15 4 15 8 0 5 -7 9 -15 9 -8 0 -15
-4 -15 -9z"/>
<path d="M2656 2222 c-2 -4 -1 -14 3 -21 6 -10 10 -9 14 3 6 16 -8 32 -17 18z"/>
<path d="M2815 2220 c-2 -3 0 -12 4 -19 6 -10 10 -9 15 4 3 10 11 13 18 8 20
-12 35 -12 35 1 0 12 -65 17 -72 6z"/>
<path d="M2900 2222 c0 -13 39 -22 46 -11 9 15 22 10 27 -8 4 -16 5 -16 6 -1
1 22 -18 33 -31 20 -8 -8 -17 -8 -30 -1 -10 6 -18 6 -18 1z"/>
<path d="M2990 2218 c0 -4 7 -8 15 -8 8 0 15 4 15 8 0 5 -7 9 -15 9 -8 0 -15
-4 -15 -9z"/>
<path d="M3053 2212 c1 -14 5 -18 11 -12 7 7 6 14 -1 21 -9 9 -12 7 -10 -9z"/>
<path d="M3250 2219 c0 -5 5 -7 10 -4 6 3 10 8 10 11 0 2 -4 4 -10 4 -5 0 -10
-5 -10 -11z"/>
<path d="M3993 2208 c-1 -11 3 -18 9 -16 15 5 19 35 4 35 -7 0 -13 -9 -13 -19z"/>
<path d="M4096 2217 c3 -10 9 -15 12 -12 3 3 0 11 -7 18 -10 9 -11 8 -5 -6z"/>
<path d="M4175 2220 c-3 -5 3 -7 12 -6 10 2 24 -4 31 -13 12 -14 12 -14 4 3
-10 21 -38 30 -47 16z"/>
<path d="M4240 2220 c-13 -8 -12 -10 3 -10 9 0 17 5 17 10 0 12 -1 12 -20 0z"/>
<path d="M4290 2223 c0 -4 5 -15 10 -23 8 -13 10 -13 10 2 0 9 -4 20 -10 23
-5 3 -10 3 -10 -2z"/>
<path d="M4584 2222 c4 -7 1 -12 -6 -12 -8 0 -6 -5 5 -11 10 -6 21 -8 24 -5 4
3 1 6 -6 6 -7 0 -10 4 -6 9 3 5 0 13 -6 17 -8 4 -9 3 -5 -4z"/>
<path d="M4614 2219 c-8 -14 14 -19 25 -6 8 10 7 14 -5 14 -8 0 -17 -4 -20 -8z"/>
<path d="M4735 2220 c-2 -3 0 -11 4 -18 5 -8 10 -6 18 7 9 14 8 18 -3 18 -8 0
-17 -3 -19 -7z"/>
<path d="M496 2207 c3 -10 9 -15 12 -12 3 3 0 11 -7 18 -10 9 -11 8 -5 -6z"/>
<path d="M1233 2205 c0 -8 4 -12 9 -9 5 3 6 10 3 15 -9 13 -12 11 -12 -6z"/>
<path d="M1716 2207 c3 -10 9 -15 12 -12 3 3 0 11 -7 18 -10 9 -11 8 -5 -6z"/>
<path d="M2373 2201 c0 -11 5 -18 9 -15 4 3 5 11 1 19 -7 21 -12 19 -10 -4z"/>
<path d="M3210 2216 c0 -2 8 -10 18 -17 15 -13 16 -12 3 4 -13 16 -21 21 -21
13z"/>
<path d="M3674 2211 c4 -5 0 -11 -6 -14 -7 -3 -3 -4 8 -4 21 1 23 27 2 27 -5
0 -7 -4 -4 -9z"/>
<path d="M4845 2210 c-16 -7 -17 -9 -3 -9 9 -1 20 4 23 9 7 11 7 11 -20 0z"/>
<path d="M343 2203 c9 -8 47 -11 47 -4 0 5 -11 9 -25 9 -14 0 -24 -2 -22 -5z"/>
<path d="M1095 2201 c-3 -5 0 -13 6 -17 7 -4 9 -3 5 4 -3 5 0 13 6 15 9 4 10
6 1 6 -6 1 -14 -3 -18 -8z"/>
<path d="M1130 2201 c0 -4 11 -7 25 -7 14 0 25 3 25 7 0 3 -11 7 -25 7 -14 0
-25 -4 -25 -7z"/>
<path d="M2016 2194 c-6 -15 -4 -15 11 -3 10 7 20 15 22 16 2 2 -3 3 -11 3 -9
0 -19 -7 -22 -16z"/>
<path d="M2426 2202 c-3 -5 1 -9 9 -9 8 0 12 4 9 9 -3 4 -7 8 -9 8 -2 0 -6 -4
-9 -8z"/>
<path d="M2465 2199 c-4 -6 -5 -12 -2 -15 2 -3 7 2 10 11 7 17 1 20 -8 4z"/>
<path d="M2610 2199 c0 -5 5 -7 10 -4 6 3 10 8 10 11 0 2 -4 4 -10 4 -5 0 -10
-5 -10 -11z"/>
<path d="M2770 2199 c0 -5 5 -7 10 -4 6 3 10 8 10 11 0 2 -4 4 -10 4 -5 0 -10
-5 -10 -11z"/>
<path d="M3077 2195 c-6 -15 10 -32 20 -21 4 3 1 6 -5 6 -6 0 -9 7 -6 15 4 8
4 15 1 15 -3 0 -7 -7 -10 -15z"/>
<path d="M4065 2200 c-3 -6 1 -7 9 -4 18 7 21 14 7 14 -6 0 -13 -4 -16 -10z"/>
<path d="M4343 2203 c9 -8 47 -11 47 -4 0 5 -11 9 -25 9 -14 0 -24 -2 -22 -5z"/>
<path d="M4490 2199 c0 -5 5 -7 10 -4 6 3 10 8 10 11 0 2 -4 4 -10 4 -5 0 -10
-5 -10 -11z"/>
<path d="M4650 2206 c0 -2 7 -7 16 -10 8 -3 12 -2 9 4 -6 10 -25 14 -25 6z"/>
<path d="M4765 2200 c-3 -6 1 -7 9 -4 18 7 21 14 7 14 -6 0 -13 -4 -16 -10z"/>
<path d="M4035 2189 c-4 -6 -5 -12 -2 -15 2 -3 7 2 10 11 7 17 1 20 -8 4z"/>
<path d="M4187 2187 c-3 -7 3 -13 14 -13 13 0 15 3 7 13 -6 7 -12 13 -13 13
-2 0 -5 -6 -8 -13z"/>
<path d="M396 2182 c-3 -5 1 -9 9 -9 8 0 12 4 9 9 -3 4 -7 8 -9 8 -2 0 -6 -4
-9 -8z"/>
<path d="M1240 2175 c-7 -8 -9 -15 -5 -15 4 0 1 -8 -6 -17 -13 -16 -12 -17 4
-4 9 8 15 16 12 19 -3 3 0 11 6 19 6 7 9 13 6 13 -2 0 -10 -7 -17 -15z"/>
<path d="M1281 2176 c-15 -18 5 -34 22 -17 9 9 7 10 -8 5 -18 -7 -18 -6 -6 9
7 9 11 17 8 17 -2 0 -10 -6 -16 -14z"/>
<path d="M1877 2173 c3 -7 -1 -21 -8 -31 -13 -15 -12 -16 2 -4 22 16 30 49 14
49 -7 0 -11 -6 -8 -14z"/>
<path d="M2040 2175 c-7 -8 -9 -15 -5 -15 4 0 1 -8 -6 -17 -13 -16 -12 -17 4
-4 9 8 15 16 12 19 -3 3 0 11 6 19 6 7 9 13 6 13 -2 0 -10 -7 -17 -15z"/>
<path d="M2517 2173 c3 -7 -1 -21 -8 -31 -13 -15 -12 -16 2 -4 22 16 30 49 14
49 -7 0 -11 -6 -8 -14z"/>
<path d="M2876 2178 c3 -5 10 -6 15 -3 13 9 11 12 -6 12 -8 0 -12 -4 -9 -9z"/>
<path d="M2997 2173 c3 -7 -1 -21 -8 -31 -13 -15 -12 -16 2 -4 22 16 30 49 14
49 -7 0 -11 -6 -8 -14z"/>
<path d="M3120 2180 c-9 -6 -10 -10 -3 -10 6 0 15 5 18 10 8 12 4 12 -15 0z"/>
<path d="M3710 2179 c0 -5 4 -8 9 -5 9 6 26 -22 22 -37 -1 -5 3 -6 9 -2 6 4 4
15 -6 31 -17 25 -34 32 -34 13z"/>
<path d="M4235 2181 c-3 -5 -2 -12 3 -15 5 -3 9 1 9 9 0 17 -3 19 -12 6z"/>
<path d="M4268 2183 c7 -3 16 -2 19 1 4 3 -2 6 -13 5 -11 0 -14 -3 -6 -6z"/>
<path d="M4798 2172 c3 -10 1 -13 -6 -8 -6 3 -13 2 -16 -3 -4 -5 1 -8 10 -7
21 3 39 33 20 33 -8 0 -12 -7 -8 -15z"/>
<path d="M516 2167 c3 -10 9 -15 12 -12 3 3 0 11 -7 18 -10 9 -11 8 -5 -6z"/>
<path d="M894 2172 c5 -7 -1 -15 -15 -20 l-23 -9 22 -5 c12 -4 20 -2 17 2 -3
5 1 10 7 13 10 3 10 8 -1 18 -9 9 -11 10 -7 1z"/>
<path d="M936 2171 c-3 -4 1 -17 10 -27 14 -18 15 -18 5 2 -6 12 -7 24 -4 28
3 3 4 6 0 6 -3 0 -8 -4 -11 -9z"/>
<path d="M1211 2172 c-1 -8 -6 -10 -13 -6 -10 5 -10 4 -1 -6 15 -16 28 -8 20
12 -4 11 -6 11 -6 0z"/>
<path d="M1319 2153 l-24 -28 28 24 c25 23 32 31 24 31 -2 0 -14 -12 -28 -27z"/>
<path d="M1717 2173 c-10 -9 -9 -23 1 -23 5 0 9 7 9 15 0 17 -1 18 -10 8z"/>
<path d="M1773 2175 c4 -5 -2 -14 -14 -20 -20 -11 -20 -12 -3 -19 10 -4 15 -4
11 0 -4 4 1 12 10 19 13 10 14 13 2 20 -8 5 -10 4 -6 0z"/>
<path d="M1855 2170 c6 -10 4 -12 -11 -6 -15 6 -17 5 -6 -5 9 -9 15 -10 23 -2
8 8 7 13 -2 18 -8 6 -10 4 -4 -5z"/>
<path d="M1935 2170 c6 -10 4 -12 -11 -6 -15 6 -17 5 -6 -5 9 -9 15 -10 23 -2
8 8 7 13 -2 18 -8 6 -10 4 -4 -5z"/>
<path d="M2155 2170 c-3 -5 -3 -10 2 -10 4 0 1 -5 -7 -10 -13 -8 -13 -10 2
-10 11 0 16 7 15 20 -1 23 -3 24 -12 10z"/>
<path d="M2436 2167 c3 -10 9 -15 12 -12 3 3 0 11 -7 18 -10 9 -11 8 -5 -6z"/>
<path d="M2494 2172 c3 -5 0 -13 -6 -15 -9 -4 -10 -6 -1 -6 17 -1 25 16 12 25
-7 4 -9 3 -5 -4z"/>
<path d="M2612 2175 c4 -4 3 -14 -4 -22 -6 -7 -9 -15 -7 -18 3 -2 10 4 17 15
9 15 9 21 -1 26 -6 4 -9 4 -5 -1z"/>
<path d="M2653 2173 c-10 -3 -10 -10 -2 -24 5 -11 14 -17 19 -14 4 3 11 0 13
-5 3 -6 4 -5 3 2 -2 7 -9 12 -16 10 -8 -2 -11 4 -7 18 3 11 4 20 4 19 -1 0 -8
-3 -14 -6z"/>
<path d="M2772 2175 c4 -4 3 -14 -4 -22 -6 -7 -9 -15 -7 -18 3 -2 10 4 17 15
9 15 9 21 -1 26 -6 4 -9 4 -5 -1z"/>
<path d="M2813 2173 c-10 -3 -10 -10 -2 -24 5 -11 14 -17 20 -14 5 4 9 1 9 -4
0 -16 -16 -13 -34 5 -12 12 -16 12 -16 2 0 -9 -13 -13 -39 -13 -21 0 -37 3
-34 8 2 4 0 7 -5 7 -6 0 -13 -7 -16 -15 -5 -13 -10 -14 -28 -4 -13 7 -26 17
-30 23 -5 7 -8 6 -8 -4 0 -12 -10 -15 -42 -14 -24 1 -47 -4 -51 -10 -6 -7 -7
-6 -4 4 2 8 9 14 15 13 6 -2 16 5 21 15 7 14 6 19 -4 19 -8 0 -11 -7 -7 -16 3
-9 2 -13 -3 -9 -4 4 -17 1 -28 -7 -17 -12 -23 -12 -42 1 -18 12 -25 12 -31 3
-4 -8 -3 -9 4 -5 8 5 10 1 5 -9 -3 -9 -9 -13 -12 -8 -7 10 -76 11 -86 1 -4 -4
-15 -4 -24 1 -9 5 -24 7 -34 6 -9 -2 -15 1 -11 6 5 8 -2 10 -23 8 -4 0 -11 8
-15 18 -7 16 -8 16 -5 -2 2 -11 9 -19 15 -17 7 1 12 -2 12 -6 0 -9 -133 -7
-149 2 -5 4 -13 1 -17 -5 -5 -8 -3 -9 6 -4 9 5 11 4 6 -3 -5 -9 -13 -9 -29 0
-26 14 -27 14 -39 -4 -8 -10 -9 -10 -5 2 2 9 14 14 31 13 15 -1 24 2 21 7 -7
12 -33 8 -59 -7 -15 -8 -25 -8 -42 4 -17 11 -24 11 -30 2 -4 -7 -3 -9 2 -6 6
3 16 1 24 -5 12 -8 12 -9 -2 -4 -11 3 -18 0 -18 -7 0 -9 -2 -9 -8 0 -5 7 -20
10 -37 8 -20 -4 -25 -2 -17 3 11 8 11 10 0 14 -8 3 -22 0 -32 -8 -15 -11 -22
-11 -41 2 -18 12 -25 12 -31 3 -4 -7 -3 -9 2 -6 6 3 16 1 24 -5 12 -8 12 -9
-2 -4 -11 3 -18 0 -18 -7 0 -8 -3 -8 -9 2 -5 8 -14 10 -22 6 -8 -5 -5 2 6 16
l20 24 -27 -23 c-21 -19 -30 -22 -46 -13 -15 8 -23 8 -28 -1 -5 -7 -3 -8 6 -3
9 5 11 4 6 -3 -5 -8 -13 -9 -24 -3 -9 4 -25 7 -35 6 -9 -2 -15 1 -11 6 5 8 -2
10 -23 8 -4 0 -11 8 -15 18 -7 16 -8 16 -5 -2 2 -11 9 -19 15 -18 7 2 12 -1
12 -5 0 -5 -34 -7 -75 -6 -41 1 -77 -2 -81 -7 -3 -5 -10 -7 -15 -4 -19 12 -49
13 -49 2 0 -9 -2 -9 -8 -1 -9 14 -64 13 -75 -1 -5 -6 -7 -4 -4 5 2 8 13 14 23
12 15 -2 16 -1 5 7 -10 6 -21 5 -34 -4 -17 -12 -23 -12 -41 0 -18 12 -24 12
-40 0 -16 -12 -22 -12 -41 1 -18 12 -25 12 -31 3 -4 -7 -3 -9 2 -6 6 3 16 1
24 -5 12 -8 12 -9 -2 -4 -11 3 -18 0 -18 -7 0 -8 -3 -9 -8 -1 -8 11 -76 13
-87 2 -4 -4 -15 -3 -25 2 -10 5 -21 6 -25 2 -5 -4 -5 -2 -1 5 4 7 13 10 21 6
23 -8 18 5 -6 18 -12 6 -19 7 -16 2 3 -4 -1 -13 -8 -20 -10 -10 -15 -9 -19 4
-4 9 -9 13 -13 10 -3 -4 -12 1 -20 11 -13 15 -13 15 -3 -6 6 -12 15 -20 21
-17 5 4 9 2 9 -3 0 -4 -20 -8 -44 -8 -38 1 -43 3 -33 16 10 12 8 12 -8 -1 -13
-10 -39 -15 -78 -14 -32 0 -57 -4 -57 -10 0 -6 -3 -6 -8 1 -9 13 -72 13 -72
-1 0 -7 -3 -7 -8 0 -4 6 -16 17 -26 25 -18 14 -18 13 -12 -10 5 -17 4 -20 -2
-12 -12 17 -22 17 -33 0 -6 -9 -9 -9 -9 -1 0 14 -62 13 -72 -2 -5 -7 -8 -6 -8
1 0 12 -78 15 -86 3 -3 -5 -13 -5 -23 1 -10 5 -22 6 -26 2 -5 -4 -5 -2 -1 5 4
7 13 10 21 6 23 -8 18 5 -6 18 -12 6 -19 7 -16 2 3 -4 -1 -13 -8 -20 -10 -10
-15 -9 -19 4 -4 9 -9 13 -13 10 -3 -4 -11 1 -18 10 -17 23 -36 8 -25 -21 8
-22 7 -23 -16 -12 -13 6 -24 14 -24 19 0 4 -5 7 -12 7 -6 0 -4 -7 5 -18 19
-21 13 -34 -10 -25 -13 5 -13 2 1 -20 11 -16 13 -27 7 -32 -6 -3 -11 -11 -11
-16 0 -6 6 -7 13 -3 7 5 6 0 -3 -11 -8 -10 -15 -19 -15 -20 0 -1 7 -10 15 -20
9 -11 10 -16 3 -11 -8 4 -13 1 -13 -9 0 -10 5 -13 13 -9 9 6 9 4 2 -7 -12 -17
-13 -39 -1 -58 6 -10 5 -12 -2 -7 -15 9 -16 -19 -1 -46 8 -15 8 -19 0 -14 -6
4 -11 3 -11 -3 0 -6 -6 -8 -14 -5 -15 6 -16 35 -1 47 6 5 4 7 -4 5 -24 -7 -20
-46 7 -64 13 -9 21 -11 18 -5 -4 6 -3 11 3 11 5 0 13 -10 16 -21 4 -12 10 -18
14 -12 8 11 21 11 41 -2 13 -7 13 -6 2 7 -10 13 -10 18 -1 24 8 4 9 3 5 -4 -8
-13 20 -12 42 1 7 5 12 3 12 -4 0 -8 5 -7 17 2 11 10 14 10 9 1 -8 -13 19 -13
42 1 6 5 12 4 12 -2 0 -6 6 -8 13 -5 8 3 14 -2 14 -11 0 -18 -9 -19 -25 -3 -6
6 -14 9 -18 6 -3 -4 8 -14 25 -23 22 -11 30 -12 29 -3 -3 14 44 18 54 4 8 -12
40 -17 32 -5 -3 5 -10 7 -15 4 -5 -4 -8 3 -6 14 4 26 17 40 17 18 0 -9 5 -19
11 -22 6 -4 9 0 7 8 -2 9 2 15 7 14 6 -1 9 -6 7 -11 -2 -5 4 -4 12 4 9 7 16 9
16 4 0 -5 5 -2 10 6 6 10 10 11 10 3 0 -7 9 -13 21 -13 11 0 18 4 15 9 -4 5 3
7 14 4 22 -6 22 -22 0 -42 -8 -7 -2 -6 13 4 27 16 29 16 43 -2 12 -16 13 -16
8 -1 -5 13 -1 16 15 13 12 -2 19 0 16 5 -3 5 -14 7 -25 5 -14 -3 -17 1 -13 13
5 11 8 12 11 4 3 -10 7 -10 20 0 12 10 14 10 8 0 -8 -13 19 -13 42 1 7 5 12 3
12 -4 0 -8 5 -7 17 2 11 10 14 10 9 1 -8 -13 19 -13 42 1 6 5 12 4 12 -2 0 -6
6 -8 13 -5 8 3 14 -2 14 -11 0 -18 -9 -19 -25 -3 -6 6 -14 9 -18 6 -10 -10 35
-30 49 -21 19 12 57 11 57 -1 0 -6 4 -4 9 4 6 8 8 17 5 21 -2 4 0 10 6 14 5 3
10 -1 10 -9 0 -8 5 -18 11 -21 6 -4 9 0 7 8 -2 9 2 15 7 14 6 -1 9 -6 7 -11
-2 -5 4 -4 12 4 9 7 16 9 16 4 0 -5 5 -2 10 6 6 10 10 11 10 3 0 -7 9 -13 21
-13 11 0 18 4 15 9 -4 5 3 7 14 4 19 -5 23 -22 7 -34 -5 -3 -1 -9 9 -13 10 -4
15 -4 11 0 -4 4 -1 14 6 22 9 13 9 14 0 8 -9 -5 -11 -2 -6 10 4 10 8 13 10 7
2 -6 17 -9 34 -6 32 5 36 -11 9 -35 -12 -11 -11 -11 10 -1 32 17 70 19 70 5 0
-6 4 -4 9 4 6 8 8 17 5 21 -2 4 0 10 6 14 5 3 10 -1 10 -9 0 -8 5 -18 11 -21
6 -4 9 0 7 8 -2 9 1 15 7 14 5 -1 9 -6 7 -11 -2 -5 4 -4 12 4 9 7 16 9 16 4 0
-5 5 -2 10 6 6 10 10 11 10 3 0 -7 9 -13 21 -13 11 0 18 4 15 9 -4 5 3 7 14 4
19 -5 23 -22 7 -34 -5 -3 -1 -9 9 -13 10 -4 15 -4 11 0 -4 4 -1 14 6 22 9 13
9 14 0 8 -9 -5 -11 -2 -6 9 4 12 8 13 13 5 10 -15 11 -15 39 -1 15 8 21 9 17
2 -8 -12 21 -11 42 2 7 5 12 3 12 -4 0 -8 5 -7 17 2 11 10 14 10 9 1 -8 -13
19 -13 42 1 6 5 12 4 12 -2 0 -6 6 -8 13 -5 8 3 14 -2 14 -11 0 -18 -9 -19
-25 -3 -6 6 -14 9 -18 6 -3 -4 8 -14 25 -23 22 -11 30 -12 29 -3 -3 14 44 18
54 4 8 -12 40 -17 32 -5 -3 5 -10 7 -15 4 -5 -4 -8 3 -6 14 4 26 17 40 17 18
0 -9 5 -19 11 -22 6 -4 9 -1 7 6 -1 8 2 14 7 14 6 0 9 -4 7 -9 -2 -5 4 -4 12
4 9 7 16 9 16 4 0 -5 5 -2 10 6 6 10 10 11 10 3 0 -7 9 -13 21 -13 11 0 18 4
15 9 -4 5 3 7 14 4 22 -6 22 -22 0 -42 -8 -7 -2 -6 13 4 27 16 29 16 43 -2 12
-16 13 -16 8 -1 -5 13 -1 16 15 13 12 -2 19 0 16 5 -3 5 -14 7 -25 5 -14 -3
-17 1 -13 13 5 11 8 12 11 4 3 -10 7 -10 20 0 12 10 14 10 8 0 -8 -13 19 -13
42 1 7 5 12 3 12 -4 0 -8 5 -7 17 2 11 10 14 10 9 1 -8 -13 19 -13 42 1 6 5
12 4 12 -2 0 -6 6 -8 13 -5 8 3 14 -2 14 -11 0 -18 -9 -19 -25 -3 -6 6 -14 9
-18 6 -10 -10 35 -30 49 -21 19 12 57 11 57 -1 0 -6 4 -4 9 4 6 8 8 17 5 21
-2 4 0 10 6 14 5 3 10 -1 10 -9 0 -8 5 -18 11 -21 6 -4 9 0 7 8 -2 9 2 16 7
15 6 0 9 -5 7 -11 -2 -6 4 -5 12 3 9 7 16 9 16 4 0 -5 5 -2 10 6 6 10 10 11
10 3 0 -7 9 -13 21 -13 11 0 18 4 15 9 -4 5 3 7 14 4 19 -5 23 -22 7 -34 -5
-3 -1 -9 9 -13 10 -4 15 -4 11 0 -4 4 -1 14 6 22 9 13 9 14 0 8 -9 -5 -11 -2
-6 9 4 12 8 13 13 5 10 -15 11 -15 39 -1 15 8 21 9 17 2 -8 -12 21 -11 42 2 7
5 12 3 12 -4 0 -8 5 -7 17 2 11 10 14 10 9 1 -8 -13 19 -13 42 1 6 5 12 4 12
-2 0 -6 6 -8 13 -5 8 3 14 -2 14 -11 0 -18 -9 -19 -25 -3 -6 6 -14 9 -18 6 -3
-4 8 -14 25 -23 22 -11 30 -12 29 -3 -3 14 44 18 54 4 8 -12 40 -17 32 -5 -3
5 -10 7 -15 4 -5 -4 -8 3 -6 14 4 26 17 40 17 18 0 -9 5 -19 11 -22 6 -4 9 -1
7 6 -1 8 2 14 7 14 6 0 9 -4 7 -9 -2 -5 4 -4 12 4 9 7 16 9 16 4 0 -5 5 -2 10
6 6 10 10 11 10 3 0 -7 9 -13 21 -13 11 0 18 4 15 9 -4 5 3 7 14 4 22 -6 22
-22 0 -42 -8 -7 -2 -6 13 4 27 16 29 16 43 -2 12 -16 13 -16 8 -1 -5 13 -1 16
15 13 12 -2 19 0 16 5 -3 5 -14 7 -25 5 -14 -3 -17 1 -13 13 5 11 8 12 11 4 3
-10 7 -10 20 0 12 10 14 10 8 0 -8 -13 19 -13 42 1 7 5 12 3 12 -4 0 -8 5 -7
17 2 11 10 14 10 9 1 -8 -13 19 -13 42 1 7 5 12 3 12 -4 0 -8 5 -7 17 2 11 10
14 10 9 1 -8 -13 19 -13 42 1 7 5 12 3 12 -4 0 -8 5 -7 17 2 11 10 14 10 9 1
-8 -13 19 -13 42 1 6 5 12 4 12 -2 0 -6 6 -8 13 -5 8 3 14 -2 14 -11 0 -18 -9
-19 -25 -3 -6 6 -14 9 -18 6 -3 -4 8 -14 25 -23 22 -11 30 -12 29 -3 -3 14 44
18 54 4 8 -12 40 -17 32 -5 -3 5 -10 7 -15 4 -5 -4 -8 3 -6 14 4 26 17 40 17
18 0 -9 5 -19 11 -22 6 -4 9 0 7 8 -2 9 2 16 7 15 6 0 9 -5 7 -11 -2 -6 4 -5
12 3 9 7 16 9 16 4 0 -5 5 -2 10 6 6 10 10 11 10 3 0 -7 9 -13 21 -13 11 0 18
4 15 9 -4 5 3 7 14 4 22 -6 22 -22 0 -42 -8 -7 -2 -6 13 4 27 16 29 16 43 -2
12 -16 13 -16 8 -1 -5 13 -1 16 15 13 12 -2 19 0 16 5 -3 5 -14 7 -25 5 -14
-3 -17 1 -13 13 5 11 8 12 11 4 3 -10 7 -10 20 0 12 10 14 10 8 0 -8 -13 19
-13 42 1 7 5 12 3 12 -4 0 -8 5 -7 17 2 11 10 14 10 9 1 -8 -13 19 -13 41 1 6
4 13 1 16 -5 3 -10 7 -10 20 1 15 11 17 11 17 -2 0 -9 5 -19 11 -22 6 -4 9 0
7 8 -2 9 1 15 7 14 5 -1 9 -6 7 -12 -1 -5 5 -1 13 9 9 12 15 15 15 7 0 -10 3
-11 14 -2 10 8 16 9 21 1 3 -5 15 -10 26 -10 17 0 18 -3 9 -22 -11 -22 -10
-22 4 -4 9 10 13 22 11 27 -3 4 -1 10 5 14 5 3 10 -1 10 -9 0 -8 5 -18 11 -21
6 -4 9 0 7 8 -2 9 1 15 7 14 5 -1 9 -5 8 -9 -2 -4 4 -5 12 -2 8 4 12 11 8 17
-4 6 -1 7 8 2 20 -13 49 -13 49 -1 0 6 4 5 9 -3 8 -12 12 -12 25 -2 13 11 16
11 16 -2 0 -9 5 -19 11 -22 6 -4 9 0 7 8 -2 9 1 15 7 14 5 -1 9 -6 7 -12 -1
-5 5 -1 13 9 9 12 15 15 15 7 0 -10 3 -11 14 -2 10 8 16 9 21 1 3 -5 15 -10
26 -10 17 0 18 -3 9 -22 -11 -22 -10 -22 4 -4 9 10 13 22 11 27 -3 4 -1 10 5
14 5 3 10 -1 10 -9 0 -8 5 -18 11 -21 6 -4 9 0 7 8 -2 9 1 15 7 14 5 -1 9 -5
8 -9 -2 -4 4 -5 12 -2 8 4 12 11 8 17 -4 6 -1 7 8 1 19 -12 42 -11 52 1 4 6 5
-6 3 -25 -3 -19 -3 -29 0 -22 3 6 10 10 15 6 5 -3 15 -2 22 3 19 12 57 11 57
-1 0 -6 4 -4 9 4 6 8 8 17 5 21 -2 4 0 10 6 14 5 3 10 -1 10 -9 0 -8 5 -18 11
-21 6 -4 9 0 7 8 -2 9 2 15 7 14 6 -1 9 -6 7 -11 -2 -5 4 -4 12 4 9 7 16 9 16
4 0 -5 5 -2 10 6 6 10 10 11 10 3 0 -7 9 -13 21 -13 11 0 18 4 15 9 -4 5 3 7
14 4 19 -5 23 -22 7 -34 -5 -3 -1 -9 9 -13 10 -4 15 -4 11 0 -4 4 -1 14 6 22
9 13 9 14 0 8 -9 -5 -11 -2 -6 9 4 12 8 13 13 5 8 -13 16 -13 44 2 12 7 16 7
12 0 -6 -10 34 -29 44 -21 8 7 6 33 -5 48 -7 11 -7 13 3 7 6 -4 12 -2 12 3 0
6 -6 11 -12 11 -10 0 -10 2 0 9 17 11 17 21 0 32 -7 5 -8 9 -2 9 6 0 11 7 11
15 0 8 -5 15 -11 15 -6 0 -5 4 2 9 8 4 14 12 14 16 0 4 -6 12 -14 16 -8 6 -9
9 -1 9 12 0 12 17 0 37 -4 6 -2 15 4 19 8 4 7 9 -2 15 -11 7 -11 9 -1 9 10 0
10 5 1 21 -6 12 -7 19 -1 15 5 -3 12 1 15 9 4 9 1 12 -9 8 -7 -3 -14 0 -14 6
0 10 14 15 33 12 4 0 7 3 7 9 0 13 -6 13 -32 -1 -27 -14 -79 -23 -58 -10 8 5
18 7 24 4 5 -3 6 -1 3 5 -9 13 -47 4 -47 -12 0 -6 -5 -3 -11 7 -6 9 -15 14
-21 11 -7 -5 -9 1 -5 16 4 16 3 20 -5 12 -13 -13 -2 -46 12 -37 5 3 10 1 10
-4 0 -14 -6 -14 -31 0 -12 6 -18 17 -15 25 3 8 2 13 -3 9 -5 -3 -11 -2 -14 2
-4 9 2 -16 9 -32 2 -6 -13 -10 -35 -10 -22 0 -37 3 -34 7 2 5 8 6 13 3 5 -3
12 0 16 6 4 8 3 9 -4 5 -7 -4 -12 -3 -12 2 0 14 -28 23 -35 11 -4 -5 -3 -9 2
-8 20 3 22 -2 6 -20 -15 -18 -19 -19 -46 -5 -16 9 -26 21 -24 28 3 7 -1 13 -8
13 -10 0 -11 -5 -4 -18 5 -10 9 -19 9 -21 0 -2 -23 -3 -50 -2 -28 1 -53 -2
-56 -7 -3 -5 -13 -5 -23 1 -10 5 -22 6 -26 2 -5 -4 -5 -2 -1 5 4 7 13 10 21 6
23 -8 18 5 -6 18 -12 6 -19 7 -16 2 3 -4 -1 -13 -8 -20 -10 -10 -15 -9 -19 4
-4 9 -9 13 -13 10 -3 -4 -12 1 -20 11 -13 15 -13 15 -3 -6 6 -12 15 -20 21
-17 5 4 9 1 9 -5 0 -7 -7 -9 -16 -6 -9 3 -20 6 -25 6 -6 0 -8 4 -5 8 3 5 -1 9
-8 9 -8 0 -12 -9 -9 -21 2 -12 -3 -5 -11 14 -8 19 -15 27 -15 18 -1 -12 -8
-15 -26 -12 -17 3 -27 -2 -35 -16 -6 -11 -15 -18 -21 -15 -19 12 -58 15 -64 5
-4 -7 -12 -7 -24 0 -10 5 -22 6 -26 2 -5 -4 -5 -2 -1 5 4 7 13 10 21 6 23 -8
18 5 -6 18 -12 6 -19 7 -16 2 3 -4 -1 -13 -8 -20 -10 -10 -14 -9 -19 3 -3 8
-10 13 -15 9 -5 -3 -12 4 -14 15 -4 17 -4 17 -3 -2 1 -13 7 -22 14 -21 6 2 12
-2 12 -8 0 -6 -9 -8 -20 -4 -13 4 -20 2 -20 -7 0 -8 -3 -9 -8 -3 -6 10 -72 15
-157 14 -62 -1 -180 -7 -185 -9 -3 -1 -9 -1 -15 1 -27 7 -135 3 -135 -6 0 -6
-3 -6 -8 1 -8 12 -72 13 -72 1 0 -4 -6 -2 -14 5 -9 8 -11 17 -5 23 5 5 9 14 9
20 0 5 -5 2 -11 -8 -7 -13 -14 -15 -23 -8 -7 6 -17 6 -26 1 -10 -7 -11 -10 -2
-10 6 0 12 -4 12 -10 0 -5 -6 -7 -14 -4 -8 3 -17 1 -21 -5 -4 -7 -13 -8 -23
-2 -9 4 -25 7 -35 6 -9 -2 -15 1 -11 6 5 8 -10 13 -30 10 -5 -1 -6 5 -3 13 4
9 2 18 -2 20 -5 3 -8 -5 -7 -17 1 -12 7 -21 14 -19 7 1 12 -2 12 -6 0 -9 -128
-8 -137 2 -3 3 1 6 10 6 10 0 17 5 17 10 0 15 -36 -6 -44 -25 -5 -13 -10 -14
-28 -4 -27 15 -28 15 -40 -3 -8 -10 -9 -10 -5 2 4 18 24 20 52 7 18 -9 18 -8
6 6 -14 18 -34 18 -65 0 -15 -8 -25 -8 -42 4 -17 11 -24 11 -30 2 -4 -7 -3 -9
2 -6 6 3 16 1 24 -5 12 -8 12 -9 -2 -4 -11 3 -18 0 -18 -7 0 -9 -2 -9 -8 0 -5
7 -20 10 -37 8 -21 -4 -26 -3 -15 4 8 5 17 8 21 5 4 -2 13 4 20 14 11 14 11
15 0 5 -11 -9 -19 -8 -36 3 -18 12 -25 12 -31 3 -4 -7 -3 -9 2 -6 6 3 16 2 24
-4 13 -7 12 -9 -2 -9 -10 0 -18 -6 -18 -12 0 -7 -5 -5 -11 5 -6 9 -15 14 -21
11 -7 -5 -9 0 -6 14 4 12 5 22 5 21 -1 0 -8 -3 -14 -6z m-2479 -29 c3 -8 10
-12 16 -9 5 3 10 1 10 -4 0 -16 -16 -13 -34 5 -18 18 -20 24 -7 24 5 0 12 -7
15 -16z m3044 -25 c-3 -8 -7 -3 -11 10 -4 17 -3 21 5 13 5 -5 8 -16 6 -23z
m-2088 4 c0 -3 -7 -3 -15 1 -8 3 -15 0 -15 -6 0 -6 -3 -9 -6 -5 -11 10 6 26
21 20 8 -3 15 -7 15 -10z m613 2 c-3 -9 -8 -14 -10 -11 -3 3 -2 9 2 15 9 16
15 13 8 -4z m2371 6 c-9 -9 -43 -11 -48 -2 -3 5 7 8 23 7 16 0 28 -3 25 -5z
m-3732 -335 c10 1 20 -1 22 -5 3 -4 -10 -7 -29 -7 -24 0 -31 4 -27 14 2 8 8 9
11 4 3 -5 14 -8 23 -6z m222 5 c3 -5 -1 -11 -9 -14 -9 -4 -12 -1 -8 9 6 16 10
17 17 5z m258 -5 c10 1 20 -1 22 -5 3 -4 -10 -7 -29 -7 -24 0 -31 4 -27 14 2
8 8 9 11 4 3 -5 14 -8 23 -6z m320 0 c10 1 20 -1 22 -5 3 -4 -10 -7 -29 -7
-24 0 -31 4 -27 14 2 8 8 9 11 4 3 -5 14 -8 23 -6z m480 0 c10 1 20 -1 22 -5
3 -4 -10 -7 -29 -7 -24 0 -31 4 -27 14 2 8 8 9 11 4 3 -5 14 -8 23 -6z m222 5
c3 -5 -1 -11 -9 -14 -9 -4 -12 -1 -8 9 6 16 10 17 17 5z m258 -5 c10 1 20 -1
22 -5 3 -4 -10 -7 -29 -7 -24 0 -31 4 -27 14 2 8 8 9 11 4 3 -5 14 -8 23 -6z
m480 0 c10 1 20 -1 22 -5 3 -4 -10 -7 -29 -7 -24 0 -31 4 -27 14 2 8 8 9 11 4
3 -5 14 -8 23 -6z m222 5 c3 -5 -1 -11 -9 -14 -9 -4 -12 -1 -8 9 6 16 10 17
17 5z m418 -5 c10 1 20 -1 22 -5 3 -4 -10 -7 -29 -7 -24 0 -31 4 -27 14 2 8 8
9 11 4 3 -5 14 -8 23 -6z m222 5 c3 -5 -1 -11 -9 -14 -9 -4 -12 -1 -8 9 6 16
10 17 17 5z m898 -5 c10 1 20 -1 23 -5 2 -4 -8 -7 -23 -6 -15 1 -32 -2 -39 -7
-7 -6 -17 -7 -23 -3 -15 9 -1 28 16 21 8 -3 14 0 14 7 0 8 2 9 8 1 4 -6 15
-10 24 -8z m311 0 c4 -10 1 -13 -8 -9 -8 3 -12 9 -9 14 7 12 11 11 17 -5z"/>
<path d="M2974 2172 c3 -5 0 -13 -6 -15 -9 -4 -10 -6 -1 -6 17 -1 25 16 12 25
-7 4 -9 3 -5 -4z"/>
<path d="M3910 2168 c0 -4 4 -8 9 -8 6 0 12 4 15 8 3 5 -1 9 -9 9 -8 0 -15 -4
-15 -9z"/>
<path d="M4483 2161 c-22 -18 -22 -19 -3 -24 11 -3 23 0 27 5 3 7 1 8 -5 4
-16 -9 -15 7 0 22 18 18 6 14 -19 -7z"/>
<path d="M440 2160 c-9 -6 -10 -10 -3 -10 6 0 15 5 18 10 8 12 4 12 -15 0z"/>
<path d="M500 2150 c6 -11 13 -20 16 -20 2 0 0 9 -6 20 -6 11 -13 20 -16 20
-2 0 0 -9 6 -20z"/>
<path d="M560 2160 c0 -5 5 -10 11 -10 5 0 7 5 4 10 -3 6 -8 10 -11 10 -2 0
-4 -4 -4 -10z"/>
<path d="M675 2160 c-3 -5 -1 -10 4 -10 6 0 11 5 11 10 0 6 -2 10 -4 10 -3 0
-8 -4 -11 -10z"/>
<path d="M717 2159 c7 -7 15 -10 18 -7 3 3 -2 9 -12 12 -14 6 -15 5 -6 -5z"/>
<path d="M1070 2160 c0 -5 5 -10 10 -10 6 0 10 5 10 10 0 6 -4 10 -10 10 -5 0
-10 -4 -10 -10z"/>
<path d="M1394 2148 l-19 -23 25 20 c14 11 27 21 29 22 2 2 0 3 -6 3 -5 0 -18
-10 -29 -22z"/>
<path d="M1560 2158 c0 -4 4 -8 9 -8 6 0 12 4 15 8 3 5 -1 9 -9 9 -8 0 -15 -4
-15 -9z"/>
<path d="M1679 2168 c-7 -25 -4 -34 15 -35 19 -2 20 -1 4 11 -10 7 -15 16 -11
19 3 4 3 7 0 7 -4 0 -7 -1 -8 -2z"/>
<path d="M1996 2158 c3 -4 9 -8 15 -8 5 0 9 4 9 8 0 5 -7 9 -15 9 -8 0 -12 -4
-9 -9z"/>
<path d="M2106 2158 c3 -4 9 -8 15 -8 5 0 9 4 9 8 0 5 -7 9 -15 9 -8 0 -12 -4
-9 -9z"/>
<path d="M2200 2158 c0 -4 4 -8 9 -8 6 0 12 4 15 8 3 5 -1 9 -9 9 -8 0 -15 -4
-15 -9z"/>
<path d="M2319 2168 c-5 -17 -6 -39 -2 -34 3 3 14 1 24 -4 12 -7 20 -7 24 0 4
6 3 10 -2 9 -15 -4 -43 13 -37 22 3 5 3 9 0 9 -3 0 -6 -1 -7 -2z"/>
<path d="M2350 2156 c7 -7 13 -7 20 0 6 6 3 10 -10 10 -13 0 -16 -4 -10 -10z"/>
<path d="M2416 2156 c4 -11 0 -13 -18 -9 -13 3 -21 3 -18 0 3 -3 18 -8 33 -11
24 -4 26 -3 17 15 -12 22 -22 26 -14 5z"/>
<path d="M2693 2155 c-4 -5 -3 -7 2 -3 4 4 14 3 20 -2 9 -7 14 -7 18 3 6 15
-32 18 -40 2z"/>
<path d="M3067 2159 c7 -7 15 -10 18 -7 3 3 -2 9 -12 12 -14 6 -15 5 -6 -5z"/>
<path d="M3160 2158 c0 -4 4 -8 9 -8 6 0 12 4 15 8 3 5 -1 9 -9 9 -8 0 -15 -4
-15 -9z"/>
<path d="M3310 2158 c0 -4 4 -8 9 -8 6 0 12 4 15 8 3 5 -1 9 -9 9 -8 0 -15 -4
-15 -9z"/>
<path d="M3437 2159 c7 -7 15 -10 18 -7 3 3 -2 9 -12 12 -14 6 -15 5 -6 -5z"/>
<path d="M3474 2148 l-19 -23 25 20 c14 11 27 21 29 22 2 2 0 3 -6 3 -5 0 -18
-10 -29 -22z"/>
<path d="M3569 2168 c-10 -33 6 -46 28 -24 4 4 1 6 -7 4 -8 -1 -14 3 -12 10 2
10 -6 19 -9 10z"/>
<path d="M3610 2152 c6 -12 15 -20 21 -17 5 4 9 1 9 -5 0 -6 5 -8 12 -4 9 6 9
9 0 12 -6 2 -14 2 -16 0 -3 -2 -12 6 -21 17 -16 19 -16 19 -5 -3z"/>
<path d="M3981 2152 c-7 -13 -6 -19 2 -19 7 0 13 9 13 19 0 10 -1 18 -3 18 -1
0 -7 -8 -12 -18z"/>
<path d="M4120 2160 c-9 -6 -10 -10 -3 -10 6 0 15 5 18 10 8 12 4 12 -15 0z"/>
<path d="M4573 2157 c1 -10 6 -17 11 -17 5 1 13 -4 18 -12 8 -11 9 -11 6 0 -2
8 -8 13 -13 12 -5 -1 -13 7 -17 17 -7 17 -8 17 -5 0z"/>
<path d="M4830 2158 c0 -4 4 -8 9 -8 6 0 12 4 15 8 3 5 -1 9 -9 9 -8 0 -15 -4
-15 -9z"/>
<path d="M589 2143 c-13 -16 -12 -17 4 -4 9 7 17 15 17 17 0 8 -8 3 -21 -13z"/>
<path d="M749 2143 c-13 -16 -12 -17 4 -4 9 7 17 15 17 17 0 8 -8 3 -21 -13z"/>
<path d="M1112 2151 c-11 -7 -10 -9 3 -14 9 -4 14 -3 10 2 -3 5 1 12 7 14 7 3
9 6 3 6 -5 0 -16 -3 -23 -8z"/>
<path d="M1149 2143 c-13 -16 -12 -17 4 -4 16 13 21 21 13 21 -2 0 -10 -8 -17
-17z"/>
<path d="M1510 2150 c-13 -8 -12 -10 3 -10 9 0 17 5 17 10 0 12 -1 12 -20 0z"/>
<path d="M1949 2143 c-13 -16 -12 -17 4 -4 16 13 21 21 13 21 -2 0 -10 -8 -17
-17z"/>
<path d="M3273 2144 c0 -7 2 -12 5 -9 3 2 13 0 23 -5 12 -7 20 -7 24 0 4 6 3
9 -2 8 -4 -1 -17 3 -29 9 -17 10 -21 9 -21 -3z"/>
<path d="M3673 2146 c0 -15 21 -16 34 -1 4 4 2 5 -4 1 -7 -4 -13 -2 -13 3 0 6
-4 11 -8 11 -5 0 -9 -6 -9 -14z"/>
<path d="M3770 2151 c0 -5 5 -13 10 -16 6 -3 10 -2 10 4 0 5 -4 13 -10 16 -5
3 -10 2 -10 -4z"/>
<path d="M468 2143 c7 -3 16 -2 19 1 4 3 -2 6 -13 5 -11 0 -14 -3 -6 -6z"/>
<path d="M536 2142 c-3 -4 4 -9 15 -9 23 -2 25 3 4 10 -8 4 -16 3 -19 -1z"/>
<path d="M616 2142 c-3 -5 1 -9 9 -9 8 0 12 4 9 9 -3 4 -7 8 -9 8 -2 0 -6 -4
-9 -8z"/>
<path d="M696 2142 c-3 -4 4 -9 15 -9 23 -2 25 3 4 10 -8 4 -16 3 -19 -1z"/>
<path d="M775 2140 c-2 -3 10 -6 26 -6 16 -1 26 2 24 7 -6 8 -44 8 -50 -1z"/>
<path d="M1414 2139 c-2 -4 4 -6 13 -4 10 1 26 -2 35 -6 11 -6 19 -5 24 3 4 6
3 8 -4 4 -6 -3 -13 -2 -17 3 -6 11 -44 10 -51 0z"/>
<path d="M3416 2142 c-3 -4 4 -9 15 -9 23 -2 25 3 4 10 -8 4 -16 3 -19 -1z"/>
<path d="M3495 2139 c-2 -3 9 -5 26 -5 16 0 29 3 29 7 0 8 -50 7 -55 -2z"/>
<path d="M4150 2143 c8 -3 24 -10 35 -16 18 -9 19 -9 6 6 -7 10 -23 17 -35 16
-14 0 -16 -2 -6 -6z"/>
<path d="M230 2130 c0 -5 5 -10 11 -10 5 0 7 5 4 10 -3 6 -8 10 -11 10 -2 0
-4 -4 -4 -10z"/>
<path d="M4895 2120 c-3 -5 -3 -10 2 -10 4 0 0 -5 -9 -11 -20 -11 -24 -29 -7
-29 5 0 8 4 5 9 -4 5 -1 11 6 13 6 2 12 12 14 21 3 19 -2 22 -11 7z"/>
<path d="M236 2074 c-8 -20 0 -32 14 -18 5 5 5 15 1 22 -6 11 -10 10 -15 -4z"/>
<path d="M4875 2051 c3 -5 1 -13 -5 -16 -7 -4 -7 -11 -2 -18 5 -7 8 -29 7 -49
-1 -21 2 -38 7 -38 4 0 6 10 4 23 -2 12 3 32 11 44 11 16 11 23 2 29 -8 4 -9
3 -5 -4 4 -7 3 -12 -3 -12 -15 0 -23 18 -11 25 13 8 13 25 -1 25 -5 0 -8 -4
-4 -9z"/>
<path d="M230 2020 c-11 -7 -11 -10 -2 -10 7 0 11 -4 7 -9 -3 -5 -2 -12 3 -15
4 -2 8 6 8 20 0 13 0 24 0 24 -1 0 -8 -5 -16 -10z"/>
<path d="M215 1971 c-3 -6 5 -15 17 -21 21 -10 21 -10 6 3 -10 8 -15 17 -11
20 3 4 4 7 0 7 -3 0 -8 -4 -12 -9z"/>
<path d="M4895 1920 c-4 -6 -10 -8 -14 -6 -3 3 -7 -11 -7 -30 0 -19 4 -34 8
-34 4 0 6 10 4 23 -2 12 3 30 12 40 8 9 12 17 9 17 -3 0 -9 -5 -12 -10z"/>
<path d="M210 1899 c0 -5 5 -7 10 -4 6 3 10 8 10 11 0 2 -4 4 -10 4 -5 0 -10
-5 -10 -11z"/>
<path d="M4873 1815 c0 -8 4 -12 9 -9 4 3 8 9 8 15 0 5 -4 9 -8 9 -5 0 -9 -7
-9 -15z"/>
<path d="M4895 1800 c-3 -5 -1 -10 4 -10 6 0 11 5 11 10 0 6 -2 10 -4 10 -3 0
-8 -4 -11 -10z"/>
<path d="M3945 1790 c-4 -6 -10 -8 -15 -5 -4 3 -5 -5 -2 -17 5 -19 7 -20 10
-5 2 9 7 15 12 12 5 -3 11 -1 14 4 4 5 2 12 -3 15 -5 4 -12 2 -16 -4z"/>
<path d="M4265 1790 c-4 -6 -10 -8 -15 -5 -4 3 -5 -5 -2 -17 5 -19 7 -20 10
-5 2 9 7 15 12 12 5 -3 11 -1 14 4 4 5 2 12 -3 15 -5 4 -12 2 -16 -4z"/>
<path d="M227 1779 c7 -7 15 -10 18 -7 3 3 -2 9 -12 12 -14 6 -15 5 -6 -5z"/>
<path d="M375 1781 c3 -6 14 -9 25 -8 23 2 17 10 -11 14 -11 2 -18 -1 -14 -6z"/>
<path d="M650 1769 c13 -23 22 -25 13 -2 -5 12 -3 14 8 8 8 -5 11 -4 6 0 -4 5
-14 10 -22 11 -12 2 -12 -2 -5 -17z"/>
<path d="M700 1780 c-9 -6 -10 -10 -3 -10 6 0 15 5 18 10 8 12 4 12 -15 0z"/>
<path d="M855 1781 c3 -6 14 -9 25 -8 23 2 17 10 -11 14 -11 2 -18 -1 -14 -6z"/>
<path d="M1130 1769 c13 -23 22 -25 13 -2 -5 12 -3 14 8 8 8 -5 11 -4 6 0 -4
5 -14 10 -22 11 -12 2 -12 -2 -5 -17z"/>
<path d="M1180 1780 c-9 -6 -10 -10 -3 -10 6 0 15 5 18 10 8 12 4 12 -15 0z"/>
<path d="M1256 1778 c3 -5 10 -6 15 -3 13 9 11 12 -6 12 -8 0 -12 -4 -9 -9z"/>
<path d="M1450 1769 c13 -23 22 -25 13 -2 -5 12 -3 14 8 8 8 -5 11 -4 6 0 -4
5 -14 10 -22 11 -12 2 -12 -2 -5 -17z"/>
<path d="M1500 1780 c-9 -6 -10 -10 -3 -10 6 0 15 5 18 10 8 12 4 12 -15 0z"/>
<path d="M1576 1781 c8 -8 43 -8 38 0 -2 4 -13 7 -24 6 -10 -1 -17 -3 -14 -6z"/>
<path d="M1655 1781 c3 -6 14 -9 25 -8 23 2 17 10 -11 14 -11 2 -18 -1 -14 -6z"/>
<path d="M1930 1769 c13 -23 22 -25 13 -2 -5 12 -3 14 8 8 8 -5 11 -4 6 0 -4
5 -14 10 -22 11 -12 2 -12 -2 -5 -17z"/>
<path d="M1980 1780 c-9 -6 -10 -10 -3 -10 6 0 15 5 18 10 8 12 4 12 -15 0z"/>
<path d="M2135 1781 c3 -6 14 -9 25 -8 23 2 17 10 -11 14 -11 2 -18 -1 -14 -6z"/>
<path d="M2410 1769 c13 -23 22 -25 13 -2 -5 12 -3 14 8 8 8 -5 11 -4 6 0 -4
5 -14 10 -22 11 -12 2 -12 -2 -5 -17z"/>
<path d="M2460 1780 c-9 -6 -10 -10 -3 -10 6 0 15 5 18 10 8 12 4 12 -15 0z"/>
<path d="M2536 1781 c8 -8 43 -8 38 0 -2 4 -13 7 -24 6 -10 -1 -17 -3 -14 -6z"/>
<path d="M2615 1781 c3 -6 14 -9 25 -8 23 2 17 10 -11 14 -11 2 -18 -1 -14 -6z"/>
<path d="M2890 1769 c13 -23 22 -25 13 -2 -5 12 -3 14 8 8 8 -5 11 -4 6 0 -4
5 -14 10 -22 11 -12 2 -12 -2 -5 -17z"/>
<path d="M2940 1780 c-9 -6 -10 -10 -3 -10 6 0 15 5 18 10 8 12 4 12 -15 0z"/>
<path d="M3095 1781 c3 -6 14 -9 25 -8 23 2 17 10 -11 14 -11 2 -18 -1 -14 -6z"/>
<path d="M3175 1781 c3 -6 14 -9 25 -8 23 2 17 10 -11 14 -11 2 -18 -1 -14 -6z"/>
<path d="M3255 1781 c3 -6 14 -9 25 -8 23 2 17 10 -11 14 -11 2 -18 -1 -14 -6z"/>
<path d="M3530 1769 c13 -23 22 -25 13 -2 -5 12 -3 14 8 8 8 -5 11 -4 6 0 -4
5 -14 10 -22 11 -12 2 -12 -2 -5 -17z"/>
<path d="M3580 1780 c-9 -6 -10 -10 -3 -10 6 0 15 5 18 10 8 12 4 12 -15 0z"/>
<path d="M3735 1781 c3 -6 14 -9 25 -8 23 2 17 10 -11 14 -11 2 -18 -1 -14 -6z"/>
<path d="M3810 1784 c0 -2 9 -8 19 -13 14 -8 20 -7 24 2 3 7 -5 13 -19 13 -13
1 -24 0 -24 -2z"/>
<path d="M4096 1779 c3 -5 10 -6 16 -3 8 5 9 1 5 -10 -4 -11 -3 -15 4 -11 14
10 6 28 -14 31 -9 1 -15 -2 -11 -7z"/>
<path d="M4143 1765 c-1 -11 1 -14 4 -7 3 6 8 10 13 7 4 -3 10 1 13 8 3 7 -3
13 -12 13 -10 0 -17 -9 -18 -21z"/>
<path d="M4416 1779 c3 -5 10 -6 16 -3 8 5 9 1 5 -10 -4 -11 -3 -15 4 -11 14
10 6 28 -14 31 -9 1 -15 -2 -11 -7z"/>
<path d="M4650 1769 c13 -23 22 -25 13 -2 -5 12 -3 14 8 8 8 -5 11 -4 6 0 -4
5 -14 10 -22 11 -12 2 -12 -2 -5 -17z"/>
<path d="M4700 1780 c-9 -6 -10 -10 -3 -10 6 0 15 5 18 10 8 12 4 12 -15 0z"/>
<path d="M4776 1781 c8 -8 43 -8 38 0 -2 4 -13 7 -24 6 -10 -1 -17 -3 -14 -6z"/>
<path d="M260 1771 c0 -6 4 -13 10 -16 6 -3 7 1 4 9 -7 18 -14 21 -14 7z"/>
<path d="M350 1762 c0 -5 7 -9 15 -9 8 0 12 4 9 9 -3 4 -9 8 -15 8 -5 0 -9 -4
-9 -8z"/>
<path d="M430 1762 c0 -5 7 -9 15 -9 8 0 12 4 9 9 -3 4 -9 8 -15 8 -5 0 -9 -4
-9 -8z"/>
<path d="M830 1762 c0 -5 7 -9 15 -9 8 0 12 4 9 9 -3 4 -9 8 -15 8 -5 0 -9 -4
-9 -8z"/>
<path d="M910 1762 c0 -5 7 -9 15 -9 8 0 12 4 9 9 -3 4 -9 8 -15 8 -5 0 -9 -4
-9 -8z"/>
<path d="M1096 1762 c-3 -5 1 -9 9 -9 8 0 12 4 9 9 -3 4 -7 8 -9 8 -2 0 -6 -4
-9 -8z"/>
<path d="M1416 1762 c-3 -5 1 -9 9 -9 8 0 12 4 9 9 -3 4 -7 8 -9 8 -2 0 -6 -4
-9 -8z"/>
<path d="M1630 1762 c0 -5 7 -9 15 -9 8 0 12 4 9 9 -3 4 -9 8 -15 8 -5 0 -9
-4 -9 -8z"/>
<path d="M1710 1762 c0 -5 7 -9 15 -9 8 0 12 4 9 9 -3 4 -9 8 -15 8 -5 0 -9
-4 -9 -8z"/>
<path d="M2110 1762 c0 -5 7 -9 15 -9 8 0 12 4 9 9 -3 4 -9 8 -15 8 -5 0 -9
-4 -9 -8z"/>
<path d="M2190 1762 c0 -5 7 -9 15 -9 8 0 12 4 9 9 -3 4 -9 8 -15 8 -5 0 -9
-4 -9 -8z"/>
<path d="M2376 1762 c-3 -5 1 -9 9 -9 8 0 12 4 9 9 -3 4 -7 8 -9 8 -2 0 -6 -4
-9 -8z"/>
<path d="M2590 1762 c0 -5 7 -9 15 -9 8 0 12 4 9 9 -3 4 -9 8 -15 8 -5 0 -9
-4 -9 -8z"/>
<path d="M2670 1762 c0 -5 7 -9 15 -9 8 0 12 4 9 9 -3 4 -9 8 -15 8 -5 0 -9
-4 -9 -8z"/>
<path d="M3070 1762 c0 -5 7 -9 15 -9 8 0 12 4 9 9 -3 4 -9 8 -15 8 -5 0 -9
-4 -9 -8z"/>
<path d="M3150 1762 c0 -5 7 -9 15 -9 8 0 12 4 9 9 -3 4 -9 8 -15 8 -5 0 -9
-4 -9 -8z"/>
<path d="M3230 1762 c0 -5 7 -9 15 -9 8 0 12 4 9 9 -3 4 -9 8 -15 8 -5 0 -9
-4 -9 -8z"/>
<path d="M3310 1762 c0 -5 7 -9 15 -9 8 0 12 4 9 9 -3 4 -9 8 -15 8 -5 0 -9
-4 -9 -8z"/>
<path d="M3710 1762 c0 -5 7 -9 15 -9 8 0 12 4 9 9 -3 4 -9 8 -15 8 -5 0 -9
-4 -9 -8z"/>
<path d="M3790 1762 c0 -5 7 -9 15 -9 8 0 12 4 9 9 -3 4 -9 8 -15 8 -5 0 -9
-4 -9 -8z"/>
<path d="M4055 1759 c-3 -4 2 -6 10 -5 21 3 28 13 10 13 -9 0 -18 -4 -20 -8z"/>
<path d="M4375 1759 c-3 -4 2 -6 10 -5 21 3 28 13 10 13 -9 0 -18 -4 -20 -8z"/>
<path d="M4616 1762 c-3 -5 1 -9 9 -9 8 0 12 4 9 9 -3 4 -7 8 -9 8 -2 0 -6 -4
-9 -8z"/>
</g>
</svg>
